<svg width="34" height="34" viewBox="0 0 34 34" fill="none" xmlns="http://www.w3.org/2000/svg">
<path d="M23.375 8.5H10.625V14.875H23.375V8.5Z" stroke="currentColor" stroke-linecap="round" stroke-linejoin="round"/>
<path d="M27.625 28.6875V5.3125C27.625 4.7257 27.1493 4.25 26.5625 4.25L7.4375 4.25C6.8507 4.25 6.375 4.7257 6.375 5.3125V28.6875C6.375 29.2743 6.8507 29.75 7.4375 29.75H26.5625C27.1493 29.75 27.625 29.2743 27.625 28.6875Z" stroke="currentColor" stroke-linecap="round" stroke-linejoin="round"/>
<path d="M11.6875 21.25C12.5677 21.25 13.2812 20.5365 13.2812 19.6562C13.2812 18.776 12.5677 18.0625 11.6875 18.0625C10.8073 18.0625 10.0938 18.776 10.0938 19.6562C10.0938 20.5365 10.8073 21.25 11.6875 21.25Z" fill="currentColor"/>
<path d="M17 21.25C17.8802 21.25 18.5938 20.5365 18.5938 19.6562C18.5938 18.776 17.8802 18.0625 17 18.0625C16.1198 18.0625 15.4062 18.776 15.4062 19.6562C15.4062 20.5365 16.1198 21.25 17 21.25Z" fill="currentColor"/>
<path d="M22.3125 21.25C23.1927 21.25 23.9062 20.5365 23.9062 19.6562C23.9062 18.776 23.1927 18.0625 22.3125 18.0625C21.4323 18.0625 20.7188 18.776 20.7188 19.6562C20.7188 20.5365 21.4323 21.25 22.3125 21.25Z" fill="currentColor"/>
<path d="M11.6875 26.5625C12.5677 26.5625 13.2812 25.849 13.2812 24.9688C13.2812 24.0885 12.5677 23.375 11.6875 23.375C10.8073 23.375 10.0938 24.0885 10.0938 24.9688C10.0938 25.849 10.8073 26.5625 11.6875 26.5625Z" fill="currentColor"/>
<path d="M17 26.5625C17.8802 26.5625 18.5938 25.849 18.5938 24.9688C18.5938 24.0885 17.8802 23.375 17 23.375C16.1198 23.375 15.4062 24.0885 15.4062 24.9688C15.4062 25.849 16.1198 26.5625 17 26.5625Z" fill="currentColor"/>
<path d="M22.3125 26.5625C23.1927 26.5625 23.9062 25.849 23.9062 24.9688C23.9062 24.0885 23.1927 23.375 22.3125 23.375C21.4323 23.375 20.7188 24.0885 20.7188 24.9688C20.7188 25.849 21.4323 26.5625 22.3125 26.5625Z" fill="currentColor"/>
</svg>
