<svg width="24" height="24" viewBox="0 0 24 24" fill="none" xmlns="http://www.w3.org/2000/svg">
<mask id="mask0_507_3443" style="mask-type:alpha" maskUnits="userSpaceOnUse" x="0" y="0" width="24" height="24">
<rect width="24" height="24" fill="#D9D9D9"/>
</mask>
<g mask="url(#mask0_507_3443)">
<path d="M12 20C12.3 20 12.5875 19.9833 12.8625 19.95C13.1375 19.9167 13.4167 19.8667 13.7 19.8L12.5 18H9V17C9 16.45 9.19583 15.9792 9.5875 15.5875C9.97917 15.1958 10.45 15 11 15H13V12H11C10.7167 12 10.4792 11.9042 10.2875 11.7125C10.0958 11.5208 10 11.2833 10 11V9H9.55C9.11667 9 8.75 8.85417 8.45 8.5625C8.15 8.27083 8 7.90833 8 7.475C8 7.325 8.02083 7.175 8.0625 7.025C8.10417 6.875 8.16667 6.73333 8.25 6.6L9.8 4.325C8.11667 4.80833 6.72917 5.75 5.6375 7.15C4.54583 8.55 4 10.1667 4 12H5V11C5 10.7167 5.09583 10.4792 5.2875 10.2875C5.47917 10.0958 5.71667 10 6 10H8C8.28333 10 8.52083 10.0958 8.7125 10.2875C8.90417 10.4792 9 10.7167 9 11V12C9 12.2833 8.90417 12.5208 8.7125 12.7125C8.52083 12.9042 8.28333 13 8 13V14C8 14.55 7.80417 15.0208 7.4125 15.4125C7.02083 15.8042 6.55 16 6 16H5.075C5.775 17.2 6.73333 18.1667 7.95 18.9C9.16667 19.6333 10.5167 20 12 20ZM19.6 14.45C19.7333 14.0667 19.8333 13.6708 19.9 13.2625C19.9667 12.8542 20 12.4333 20 12C20 10.1333 19.4333 8.4875 18.3 7.0625C17.1667 5.6375 15.7333 4.7 14 4.25V7C14.55 7 15.0208 7.19583 15.4125 7.5875C15.8042 7.97917 16 8.45 16 9V11C16.3167 11 16.6 11.0375 16.85 11.1125C17.1 11.1875 17.3417 11.3417 17.575 11.575L19.6 14.45ZM12.0033 21C10.7587 21 9.58867 20.7638 8.493 20.2915C7.3975 19.8192 6.4445 19.1782 5.634 18.3685C4.8235 17.5588 4.18192 16.6067 3.70925 15.512C3.23642 14.4175 3 13.2479 3 12.0033C3 10.7587 3.23617 9.58867 3.7085 8.493C4.18083 7.3975 4.82183 6.4445 5.6315 5.634C6.44117 4.8235 7.39333 4.18192 8.488 3.70925C9.5825 3.23642 10.7521 3 11.9967 3C13.2413 3 14.4113 3.23617 15.507 3.7085C16.6025 4.18083 17.5555 4.82183 18.366 5.6315C19.1765 6.44117 19.8181 7.39333 20.2908 8.488C20.7636 9.5825 21 10.7521 21 11.9967C21 13.2413 20.7638 14.4113 20.2915 15.507C19.8192 16.6025 19.1782 17.5555 18.3685 18.366C17.5588 19.1765 16.6067 19.8181 15.512 20.2908C14.4175 20.7636 13.2479 21 12.0033 21Z" fill="currentColor"/>
</g>
</svg>
