<svg width="24" height="24" viewBox="0 0 24 24" fill="none" xmlns="http://www.w3.org/2000/svg">
<mask id="mask0_507_3465" style="mask-type:alpha" maskUnits="userSpaceOnUse" x="0" y="0" width="24" height="24">
<rect width="24" height="24" fill="#D9D9D9"/>
</mask>
<g mask="url(#mask0_507_3465)">
<path d="M11.5 19.7134V12.2864L5 8.52294V15.6037C5 15.7064 5.02567 15.8025 5.077 15.8922C5.12817 15.982 5.20508 16.0589 5.30775 16.1229L11.5 19.7134ZM12.5 19.7134L18.6923 16.1229C18.7949 16.0589 18.8718 15.982 18.923 15.8922C18.9743 15.8025 19 15.7064 19 15.6037V8.52294L12.5 12.2864V19.7134ZM11.1923 20.6864L4.80775 17.0077C4.55508 16.8629 4.35733 16.666 4.2145 16.4172C4.0715 16.1685 4 15.8993 4 15.6094V8.39044C4 8.10061 4.0715 7.83136 4.2145 7.58269C4.35733 7.33386 4.55508 7.13703 4.80775 6.99219L11.1923 3.31344C11.4449 3.16861 11.7142 3.09619 12 3.09619C12.2858 3.09619 12.5551 3.16861 12.8077 3.31344L19.1923 6.99219C19.4449 7.13703 19.6427 7.33386 19.7855 7.58269C19.9285 7.83136 20 8.10061 20 8.39044V15.6094C20 15.8993 19.9285 16.1685 19.7855 16.4172C19.6427 16.666 19.4449 16.8629 19.1923 17.0077L12.8077 20.6864C12.5551 20.8313 12.2858 20.9037 12 20.9037C11.7142 20.9037 11.4449 20.8313 11.1923 20.6864ZM15.7115 9.27494L18.425 7.71344L12.3077 4.17294C12.2051 4.10894 12.1025 4.07694 12 4.07694C11.8975 4.07694 11.7949 4.10894 11.6923 4.17294L9.3 5.54794L15.7115 9.27494ZM12 11.4269L14.7 9.85944L8.275 6.14619L5.575 7.71344L12 11.4269Z" fill="currentColor"/>
</g>
</svg>
