<svg width="24" height="24" viewBox="0 0 24 24" fill="none" xmlns="http://www.w3.org/2000/svg">
<mask id="mask0_507_4506" style="mask-type:alpha" maskUnits="userSpaceOnUse" x="0" y="0" width="24" height="24">
<rect width="24" height="24" fill="#D9D9D9"/>
</mask>
<g mask="url(#mask0_507_4506)">
<path d="M9.44425 21L8.75 20.2865L12.4845 16.5577L13.1923 17.2462L9.44425 21ZM14.227 21L13.5193 20.2865L16.7673 17.0385L17.4808 17.7462L14.227 21ZM3.7135 10.5L3 9.8115L6.273 6.5385L6.98075 7.23275L3.7135 10.5ZM3.7135 15.2692L3 14.575L6.75375 10.827L7.4615 11.5155L3.7135 15.2692ZM18.75 14.5905L16.4845 8.90375L13.9578 11.4308L14.4135 13.6845L13.873 14.2115L12.4058 11.5885L9.7885 10.127L10.3095 9.6L12.5635 10.0365L15.0905 7.52875L9.40375 5.25L10.1537 4.5365L17.0212 5.623L19.3538 3.29625C19.4526 3.19742 19.5584 3.12333 19.6712 3.074C19.7841 3.02467 19.9065 3 20.0385 3C20.1577 3 20.2769 3.02467 20.3962 3.074C20.5154 3.12333 20.6243 3.19742 20.723 3.29625C20.8218 3.39108 20.8927 3.49492 20.9355 3.60775C20.9785 3.72058 21 3.83658 21 3.95575C21 4.07492 20.9753 4.19833 20.926 4.326C20.8767 4.4535 20.8026 4.56667 20.7038 4.6655L18.3712 6.99225L19.4578 13.8405L18.75 14.5905Z" fill="currentColor"/>
</g>
</svg>
