<svg width="24" height="24" viewBox="0 0 24 24" fill="none" xmlns="http://www.w3.org/2000/svg">
<mask id="mask0_507_69" style="mask-type:alpha" maskUnits="userSpaceOnUse" x="0" y="0" width="24" height="24">
<rect width="24" height="24" fill="#D9D9D9"/>
</mask>
<g mask="url(#mask0_507_69)">
<path d="M7.49888 19C6.80654 19 6.21679 18.7564 5.72963 18.2693C5.24246 17.7821 4.99888 17.1923 4.99888 16.5H2.76812L2.98738 15.5H5.25463C5.43546 15.0552 5.72712 14.6939 6.12962 14.4163C6.53212 14.1388 6.98854 14 7.49888 14C8.00921 14 8.46562 14.1388 8.86812 14.4163C9.27062 14.6939 9.56229 15.0552 9.74312 15.5H14.3604L16.5566 6H5.60663L5.62963 5.902C5.67829 5.64033 5.80487 5.42458 6.00938 5.25475C6.21388 5.08492 6.45521 5 6.73338 5H17.8066L16.9969 8.5H19.0759L21.7874 12.1155L20.9219 16.5H19.7681C19.7681 17.1923 19.5245 17.7821 19.0374 18.2693C18.5502 18.7564 17.9605 19 17.2681 19C16.5758 19 15.986 18.7564 15.4989 18.2693C15.0117 17.7821 14.7681 17.1923 14.7681 16.5H9.99888C9.99888 17.1923 9.75529 17.7821 9.26812 18.2693C8.78096 18.7564 8.19121 19 7.49888 19ZM15.8854 13.25H20.5374L20.7144 12.3595L18.5759 9.5H16.7584L15.8854 13.25ZM16.3144 7.002L16.5566 6L14.3604 15.5L14.6026 14.498L15.3951 11.002L16.3144 7.002ZM1.67188 12.998L1.92188 11.998H6.40263L6.15263 12.998H1.67188ZM3.67188 9.502L3.92188 8.502H9.40262L9.15262 9.502H3.67188ZM7.49888 18C7.91038 18 8.26329 17.8529 8.55762 17.5588C8.85179 17.2644 8.99888 16.9115 8.99888 16.5C8.99888 16.0885 8.85179 15.7356 8.55762 15.4412C8.26329 15.1471 7.91038 15 7.49888 15C7.08738 15 6.73446 15.1471 6.44012 15.4412C6.14596 15.7356 5.99888 16.0885 5.99888 16.5C5.99888 16.9115 6.14596 17.2644 6.44012 17.5588C6.73446 17.8529 7.08738 18 7.49888 18ZM17.2681 18C17.6796 18 18.0325 17.8529 18.3269 17.5588C18.621 17.2644 18.7681 16.9115 18.7681 16.5C18.7681 16.0885 18.621 15.7356 18.3269 15.4412C18.0325 15.1471 17.6796 15 17.2681 15C16.8566 15 16.5037 15.1471 16.2094 15.4412C15.9152 15.7356 15.7681 16.0885 15.7681 16.5C15.7681 16.9115 15.9152 17.2644 16.2094 17.5588C16.5037 17.8529 16.8566 18 17.2681 18Z" fill="currentColor"/>
</g>
</svg>
