<svg width="167" height="51" viewBox="0 0 167 51" fill="none" xmlns="http://www.w3.org/2000/svg">
<path d="M32.6514 19.0635L34.2373 17.6885L34.2373 17.6875L34.5645 18.0654L35.2158 17.5L36.5225 17.5L36.5225 17L39.5078 17L39.5078 17.5L40.0439 17.5L40.207 17.6885L38.6211 19.0635L38.2939 18.6846L36.708 20.0596L37.0352 20.4385L35.4492 21.8135L35.1221 21.4346L33.5361 22.8096L33.8633 23.1875L32.2773 24.5625L31.9502 24.1846L30.3643 25.5596L30.6914 25.9375L29.1055 27.3125L28.7783 26.9346L27.1934 28.3096L27.5195 28.6875L25.9336 30.0625L25.6074 29.6846L24.0215 31.0596L24.3477 31.4375L22.7617 32.8125L22.4355 32.4346L21.6426 33.1221L21.207 33.5L21.6426 33.8779L22.4355 34.5654L22.7617 34.1885L24.3477 35.5635L24.0215 35.9404L25.6074 37.3154L25.9336 36.9385L27.5195 38.3135L27.1934 38.6904L28.7783 40.0654L29.1055 39.6885L30.6914 41.0635L30.3643 41.4404L31.9502 42.8154L32.2773 42.4385L33.8633 43.8135L33.5361 44.1904L35.1221 45.5654L35.4492 45.1875L37.0352 46.5625L36.708 46.9404L38.2939 48.3154L38.6211 47.9375L40.207 49.3125L40.0439 49.5L39.5078 49.5L39.5078 50L36.5225 50L36.5225 49.5L35.2158 49.5L34.5645 48.9346L34.2373 49.3125L32.6514 47.9375L32.9785 47.5596L31.3926 46.1846L31.0654 46.5625L29.4795 45.1875L29.8066 44.8096L28.2217 43.4346L27.8936 43.8125L26.3076 42.4375L26.6357 42.0596L25.0498 40.6846L24.7217 41.0625L23.1357 39.6875L23.4639 39.3096L21.8779 37.9346L21.5508 38.3125L21.5498 38.3135L19.9639 36.9385L19.9648 36.9375L20.292 36.5596L18.7061 35.1846L18.3789 35.5625L18.3779 35.5635L16.792 34.1885L16.793 34.1875L17.1201 33.8096L16.7627 33.5L17.1201 33.1904L16.793 32.8125L16.792 32.8125L18.3779 31.4375L18.3789 31.4375L18.7061 31.8154L20.292 30.4404L19.9648 30.0625L19.9639 30.0625L21.5498 28.6875L21.5508 28.6875L21.8779 29.0654L23.4639 27.6904L23.1357 27.3135L24.7217 25.9385L24.7217 25.9375L25.0498 26.3154L26.6357 24.9404L26.3076 24.5635L27.8936 23.1885L27.8936 23.1875L28.2217 23.5654L29.8066 22.1904L29.4795 21.8135L31.0654 20.4385L31.0654 20.4375L31.3926 20.8154L32.9785 19.4404L32.6514 19.0635Z" stroke="#121E4C" stroke-dasharray="2 2"/>
<path d="M25 17.5L5.97015 0.999999L1.43686e-06 0.999999L19.0299 17.5L0 34L5.97015 34L25 17.5Z" fill="#121E4C"/>
<path d="M61.5275 31.4144C59.3175 31.4144 57.3413 30.9256 55.5988 29.9481C53.8563 28.9494 52.4856 27.5681 51.4869 25.8044C50.5094 24.0406 50.0206 22.0537 50.0206 19.8437C50.0206 17.6337 50.5094 15.6469 51.4869 13.8831C52.4856 12.1194 53.8563 10.7487 55.5988 9.77125C57.3413 8.7725 59.3175 8.27312 61.5275 8.27312C63.4613 8.27312 65.225 8.65562 66.8188 9.42062C68.4125 10.1856 69.73 11.2694 70.7713 12.6719C71.8338 14.0744 72.5244 15.7 72.8431 17.5487H66.7869C66.4256 16.465 65.7775 15.6044 64.8425 14.9669C63.9288 14.3294 62.8663 14.0106 61.655 14.0106C60.6138 14.0106 59.6681 14.2656 58.8181 14.7756C57.9894 15.2644 57.3413 15.955 56.8738 16.8475C56.4063 17.7187 56.1725 18.7175 56.1725 19.8437C56.1725 20.97 56.4063 21.9794 56.8738 22.8719C57.3413 23.7431 57.9894 24.4337 58.8181 24.9437C59.6681 25.4325 60.6138 25.6769 61.655 25.6769C62.9088 25.6769 64.0031 25.3369 64.9381 24.6569C65.8944 23.9769 66.5425 23.0631 66.8825 21.9156H72.9069C72.6094 23.8069 71.9294 25.475 70.8669 26.92C69.8256 28.3437 68.4975 29.4487 66.8825 30.235C65.2888 31.0213 63.5038 31.4144 61.5275 31.4144ZM80.8208 8.6875H86.3352L94.4633 30.3306V31H88.2477L87.1958 27.5575H79.9921L78.8765 31H72.7246V30.3306L80.8208 8.6875ZM81.3946 22.8081H85.7933L83.594 16.4969L81.3946 22.8081ZM114.681 30.3306V31H108.115L102.824 23.095V31H96.8632V8.6875H105.342C107.956 8.6875 110.006 9.35687 111.494 10.6956C112.981 12.0131 113.725 13.8194 113.725 16.1144C113.725 17.7081 113.353 19.0787 112.609 20.2262C111.866 21.3525 110.803 22.1812 109.422 22.7125L114.681 30.3306ZM102.792 18.9831H105.183C106.011 18.9831 106.649 18.7812 107.095 18.3775C107.541 17.9525 107.764 17.3575 107.764 16.5925C107.764 15.8062 107.531 15.2112 107.063 14.8075C106.617 14.3825 105.99 14.17 105.183 14.17H102.792V18.9831ZM138.84 18.6325C138.947 21.14 138.532 23.3606 137.597 25.2944C136.662 27.2281 135.302 28.7369 133.517 29.8206C131.753 30.8831 129.703 31.4144 127.365 31.4144C125.134 31.4144 123.137 30.9256 121.373 29.9481C119.609 28.9494 118.228 27.5787 117.229 25.8362C116.252 24.0725 115.763 22.075 115.763 19.8437C115.763 17.6337 116.252 15.6469 117.229 13.8831C118.207 12.1194 119.567 10.7487 121.309 9.77125C123.052 8.7725 125.028 8.27312 127.238 8.27312C129.15 8.27312 130.893 8.62375 132.465 9.325C134.038 10.0262 135.355 11.025 136.418 12.3212C137.48 13.5962 138.192 15.0944 138.553 16.8156H132.465C131.467 14.9244 129.83 13.9787 127.557 13.9787C126.452 13.9787 125.463 14.2337 124.592 14.7437C123.742 15.2325 123.073 15.9231 122.584 16.8156C122.117 17.7081 121.883 18.7281 121.883 19.8756C121.883 21.6394 122.403 23.0631 123.445 24.1469C124.486 25.2094 125.888 25.7406 127.652 25.7406C128.778 25.7406 129.745 25.5175 130.553 25.0712C131.36 24.6037 131.977 23.9131 132.402 22.9994H126.377V18.6325H138.84ZM152.677 31.4144C150.403 31.4144 148.374 30.9256 146.589 29.9481C144.804 28.9494 143.401 27.5681 142.381 25.8044C141.382 24.0406 140.883 22.0537 140.883 19.8437C140.883 17.6337 141.382 15.6469 142.381 13.8831C143.401 12.1194 144.804 10.7487 146.589 9.77125C148.374 8.7725 150.403 8.27312 152.677 8.27312C154.929 8.27312 156.948 8.7725 158.733 9.77125C160.518 10.7487 161.91 12.1194 162.909 13.8831C163.929 15.6469 164.439 17.6337 164.439 19.8437C164.439 22.0537 163.929 24.0406 162.909 25.8044C161.91 27.5681 160.518 28.9494 158.733 29.9481C156.948 30.9256 154.929 31.4144 152.677 31.4144ZM152.677 25.6769C153.739 25.6769 154.696 25.4325 155.546 24.9437C156.417 24.4337 157.086 23.7431 157.554 22.8719C158.042 21.9794 158.287 20.97 158.287 19.8437C158.287 18.7175 158.042 17.7187 157.554 16.8475C157.086 15.955 156.417 15.2644 155.546 14.7756C154.696 14.2656 153.739 14.0106 152.677 14.0106C151.614 14.0106 150.647 14.2656 149.776 14.7756C148.926 15.2644 148.257 15.955 147.768 16.8475C147.279 17.7187 147.035 18.7175 147.035 19.8437C147.035 20.97 147.279 21.9794 147.768 22.8719C148.257 23.7431 148.926 24.4337 149.776 24.9437C150.647 25.4325 151.614 25.6769 152.677 25.6769Z" fill="#121E4C"/>
<path d="M50.4084 37.229H57.4433V38.4819H51.7858V41.8359H56.704V43.0188H51.7858V46.5674H57.5134V47.8125H50.4084V37.229ZM61.132 43.7659L58.4472 39.8749H60.0347L62.058 42.8632H62.0658L64.0969 39.8749H65.6767L62.9919 43.7659L65.7545 47.8125H64.1436L62.0503 44.7153L59.9491 47.8125H58.3772L61.132 43.7659ZM67.342 39.8749H68.626V41.5714C68.7661 41.2964 68.9373 41.0422 69.1396 40.8087C69.3472 40.5753 69.5806 40.3729 69.84 40.2017C70.1046 40.0305 70.3925 39.8982 70.7038 39.8048C71.0151 39.7063 71.3419 39.657 71.6844 39.657C72.2447 39.657 72.7635 39.7659 73.2408 39.9838C73.718 40.2017 74.1305 40.5 74.4781 40.8788C74.8309 41.2575 75.1058 41.701 75.303 42.2095C75.5001 42.7179 75.5987 43.2626 75.5987 43.8437C75.5987 44.4247 75.5001 44.9721 75.303 45.4857C75.1058 45.9941 74.8309 46.4377 74.4781 46.8164C74.1305 47.1951 73.718 47.4934 73.2408 47.7113C72.7686 47.9292 72.255 48.0382 71.6999 48.0382C71.3731 48.0382 71.0566 47.9941 70.7505 47.9059C70.4444 47.8177 70.1591 47.6932 69.8945 47.5323C69.6351 47.3663 69.399 47.1666 69.1863 46.9331C68.9736 46.6997 68.7972 46.4403 68.6572 46.1549L68.6805 47.0499V50.5206H67.342V39.8749ZM71.4665 46.7931C71.8504 46.7931 72.2109 46.723 72.5482 46.5829C72.8854 46.4377 73.1811 46.2354 73.4353 45.976C73.6947 45.7166 73.897 45.4053 74.0423 45.0421C74.1927 44.679 74.268 44.2795 74.268 43.8437C74.268 43.4131 74.1927 43.0188 74.0423 42.6608C73.897 42.3029 73.6973 41.9942 73.4431 41.7348C73.1941 41.4702 72.8983 41.2653 72.5559 41.12C72.2187 40.9747 71.8556 40.9021 71.4665 40.9021C71.0774 40.9021 70.7142 40.9799 70.377 41.1356C70.0398 41.286 69.744 41.4935 69.4898 41.7581C69.2356 42.0227 69.0359 42.334 68.8906 42.692C68.7454 43.0499 68.6727 43.4338 68.6727 43.8437C68.6727 44.2639 68.7454 44.6556 68.8906 45.0188C69.0411 45.3767 69.2434 45.688 69.4976 45.9526C69.7518 46.2172 70.0475 46.4247 70.3848 46.5752C70.7272 46.7204 71.0877 46.7931 71.4665 46.7931ZM77.5053 39.8749H78.7971V41.6492C78.9942 41.0992 79.3003 40.666 79.7154 40.3496C80.1304 40.0331 80.6284 39.8749 81.2095 39.8749H81.9799V41.05H81.2795C80.9319 41.05 80.6103 41.1174 80.3146 41.2523C80.0189 41.3872 79.7621 41.5843 79.5442 41.8437C79.3263 42.1031 79.1551 42.4222 79.0305 42.8009C78.9112 43.1744 78.8516 43.5999 78.8516 44.0771V47.8125H77.5053V39.8749ZM90.4467 43.6491C90.4467 43.7218 90.4441 43.7944 90.4389 43.867C90.4389 43.9397 90.4337 44.0486 90.4234 44.1939H83.8398C83.8813 44.5934 83.9799 44.9539 84.1355 45.2756C84.2964 45.592 84.4961 45.8644 84.7347 46.0927C84.9786 46.3158 85.2509 46.487 85.5518 46.6063C85.8528 46.7256 86.1666 46.7853 86.4935 46.7853C87.0278 46.7853 87.4844 46.6711 87.8631 46.4429C88.2418 46.2146 88.5194 45.8748 88.6958 45.4234H90.1977C90.0836 45.7866 89.9124 46.1264 89.6841 46.4429C89.461 46.7593 89.1886 47.0369 88.867 47.2755C88.5505 47.509 88.1925 47.6932 87.7931 47.8281C87.3988 47.963 86.976 48.0304 86.5246 48.0304C85.9487 48.0304 85.4144 47.9214 84.9215 47.7036C84.4338 47.4857 84.0084 47.1873 83.6453 46.8086C83.2821 46.4299 82.9968 45.9863 82.7892 45.4779C82.5869 44.9695 82.4857 44.4247 82.4857 43.8437C82.4857 43.2626 82.5869 42.7179 82.7892 42.2095C82.9968 41.701 83.2821 41.2575 83.6453 40.8788C84.0084 40.5 84.4338 40.2017 84.9215 39.9838C85.4144 39.7607 85.9487 39.6492 86.5246 39.6492C87.0953 39.6492 87.6193 39.7581 88.0966 39.976C88.579 40.1939 88.9941 40.4871 89.3417 40.8554C89.6893 41.2186 89.959 41.6414 90.151 42.1239C90.3481 42.6064 90.4467 43.1148 90.4467 43.6491ZM89.0771 43.011C89.0563 42.7309 88.9733 42.4637 88.8281 42.2095C88.688 41.9553 88.5012 41.7322 88.2678 41.5402C88.0343 41.3483 87.7645 41.1952 87.4584 41.0811C87.1575 40.9669 86.8385 40.9099 86.5013 40.9099C86.2055 40.9099 85.9176 40.9566 85.6375 41.05C85.3573 41.1382 85.1005 41.2704 84.867 41.4468C84.6388 41.6232 84.439 41.8437 84.2678 42.1083C84.1018 42.3677 83.9799 42.6686 83.9021 43.011H89.0771ZM94.8747 48.0382C94.3195 48.0382 93.8345 47.963 93.4194 47.8125C93.0044 47.662 92.6594 47.4623 92.3844 47.2133C92.1095 46.9643 91.9019 46.6815 91.7619 46.3651C91.627 46.0434 91.5595 45.714 91.5595 45.3767L92.8513 45.3845C92.8565 45.6024 92.9032 45.8073 92.9914 45.9993C93.0848 46.1861 93.2171 46.3495 93.3883 46.4896C93.5595 46.6296 93.7696 46.7412 94.0186 46.8242C94.2729 46.9072 94.5634 46.9487 94.8902 46.9487C95.492 46.9487 95.946 46.832 96.2521 46.5985C96.5582 46.3651 96.7112 46.046 96.7112 45.6413C96.7112 45.4182 96.6645 45.2341 96.5711 45.0888C96.4829 44.9435 96.3506 44.8216 96.1743 44.7231C96.0031 44.6245 95.7929 44.5467 95.5439 44.4896C95.3001 44.4273 95.0225 44.3703 94.7112 44.3184C94.3429 44.2613 93.9901 44.1835 93.6529 44.0849C93.3157 43.9864 93.02 43.8489 92.7657 43.6725C92.5115 43.4909 92.3092 43.2626 92.1588 42.9877C92.0083 42.7127 91.9331 42.3755 91.9331 41.976C91.9331 41.6492 91.9927 41.3457 92.1121 41.0655C92.2314 40.7802 92.4078 40.5338 92.6412 40.3262C92.8799 40.1135 93.1756 39.9475 93.5284 39.8282C93.8864 39.7089 94.3014 39.6492 94.7735 39.6492C95.2352 39.6492 95.6529 39.7089 96.0264 39.8282C96.3999 39.9475 96.719 40.1135 96.9836 40.3262C97.2534 40.5338 97.4609 40.7828 97.6061 41.0733C97.7514 41.3638 97.824 41.6829 97.824 42.0305H96.5089C96.4881 41.6518 96.3273 41.3483 96.0264 41.12C95.7255 40.8865 95.3079 40.7698 94.7735 40.7698C94.5193 40.7698 94.2962 40.8009 94.1042 40.8632C93.9123 40.9254 93.7541 41.011 93.6295 41.12C93.505 41.2238 93.4117 41.3483 93.3494 41.4935C93.2871 41.6336 93.256 41.7841 93.256 41.9449C93.256 42.1317 93.2845 42.2925 93.3416 42.4274C93.4039 42.5623 93.5076 42.679 93.6529 42.7776C93.7982 42.8761 93.9927 42.9617 94.2365 43.0344C94.4856 43.1018 94.7943 43.1667 95.1626 43.2289C95.5258 43.286 95.8811 43.3586 96.2287 43.4468C96.5815 43.535 96.8928 43.6647 97.1626 43.8359C97.4375 44.0071 97.658 44.2328 97.824 44.5129C97.9901 44.7879 98.0731 45.1407 98.0731 45.5713C98.0731 45.976 97.9952 46.3339 97.8396 46.6452C97.684 46.9513 97.4635 47.2081 97.1781 47.4156C96.898 47.6231 96.5608 47.7788 96.1665 47.8825C95.7774 47.9863 95.3468 48.0382 94.8747 48.0382ZM102.548 48.0382C101.993 48.0382 101.508 47.963 101.092 47.8125C100.677 47.662 100.332 47.4623 100.057 47.2133C99.7825 46.9643 99.575 46.6815 99.4349 46.3651C99.3 46.0434 99.2326 45.714 99.2326 45.3767L100.524 45.3845C100.53 45.6024 100.576 45.8073 100.664 45.9993C100.758 46.1861 100.89 46.3495 101.061 46.4896C101.233 46.6296 101.443 46.7412 101.692 46.8242C101.946 46.9072 102.236 46.9487 102.563 46.9487C103.165 46.9487 103.619 46.832 103.925 46.5985C104.231 46.3651 104.384 46.046 104.384 45.6413C104.384 45.4182 104.338 45.2341 104.244 45.0888C104.156 44.9435 104.024 44.8216 103.847 44.7231C103.676 44.6245 103.466 44.5467 103.217 44.4896C102.973 44.4273 102.696 44.3703 102.384 44.3184C102.016 44.2613 101.663 44.1835 101.326 44.0849C100.989 43.9864 100.693 43.8489 100.439 43.6725C100.185 43.4909 99.9822 43.2626 99.8318 42.9877C99.6813 42.7127 99.6061 42.3755 99.6061 41.976C99.6061 41.6492 99.6658 41.3457 99.7851 41.0655C99.9044 40.7802 100.081 40.5338 100.314 40.3262C100.553 40.1135 100.849 39.9475 101.201 39.8282C101.559 39.7089 101.974 39.6492 102.447 39.6492C102.908 39.6492 103.326 39.7089 103.699 39.8282C104.073 39.9475 104.392 40.1135 104.657 40.3262C104.926 40.5338 105.134 40.7828 105.279 41.0733C105.424 41.3638 105.497 41.6829 105.497 42.0305H104.182C104.161 41.6518 104 41.3483 103.699 41.12C103.399 40.8865 102.981 40.7698 102.447 40.7698C102.192 40.7698 101.969 40.8009 101.777 40.8632C101.585 40.9254 101.427 41.011 101.303 41.12C101.178 41.2238 101.085 41.3483 101.022 41.4935C100.96 41.6336 100.929 41.7841 100.929 41.9449C100.929 42.1317 100.958 42.2925 101.015 42.4274C101.077 42.5623 101.181 42.679 101.326 42.7776C101.471 42.8761 101.666 42.9617 101.91 43.0344C102.159 43.1018 102.467 43.1667 102.836 43.2289C103.199 43.286 103.554 43.3586 103.902 43.4468C104.255 43.535 104.566 43.6647 104.836 43.8359C105.111 44.0071 105.331 44.2328 105.497 44.5129C105.663 44.7879 105.746 45.1407 105.746 45.5713C105.746 45.976 105.668 46.3339 105.513 46.6452C105.357 46.9513 105.137 47.2081 104.851 47.4156C104.571 47.6231 104.234 47.7788 103.84 47.8825C103.45 47.9863 103.02 48.0382 102.548 48.0382Z" fill="#121E4C"/>
</svg>
