<svg width="2057" height="1063" viewBox="0 0 2057 1063" fill="none" xmlns="http://www.w3.org/2000/svg">
<path d="M14.7425 450.102C-18.21 495.657 12.12 616.462 53.1315 730.919C98.1728 856.623 256.541 886.661 366.879 811.458C482.846 732.419 618.444 663.303 694.243 705.5C776.731 751.421 766.292 802.043 954.119 837.789C1026.82 851.626 1110.55 816.761 1110.71 742.751C1110.97 621.47 991.247 514.728 961.497 402.253C949.924 358.497 973.219 314.096 1013.18 292.842C1104.18 244.44 1238.26 227.203 1326.24 253C1510.6 297.5 1628.16 552.11 1644.86 718.383C1659.35 862.55 1632.53 937.566 1599.86 975.841C1553.2 1030.5 1497.91 1061.5 1430.74 1061.5C1373.02 1061.5 1333.37 1047.93 1315.89 1041.3C1275.55 1026 1250.34 957.588 1239.27 913.613C1233.28 889.788 1244.7 851.106 1261.23 807.251C1290.91 728.575 1334.84 707.004 1416.24 669.5C1439.74 658.671 1506.51 643.175 1553.2 656.355C1658.06 685.959 1660.17 656.355 1677.6 653.919C1707.48 649.741 1756.65 565.131 1819.29 476.023C1882.1 386.679 1889.79 261.582 1883.38 164.206C1880.44 119.585 1869.55 88.0795 1858.54 66.8311C1842.7 36.2522 1814.66 18.2031 1788.47 8.72072C1753.26 -4.02786 1721.41 21.3603 1725.67 58.5634C1730.26 98.6467 1784.36 162.05 1813.21 209.02C1831.47 238.755 1852.84 266.215 1905.26 343.3C1928.74 377.846 1954.9 399.473 1977.43 412.636C1985.75 417.496 1994.06 422.434 2002.71 426.67C2012.7 431.561 2022.9 434.517 2032.6 435.444C2039.1 436.762 2044.57 439.398 2055.75 450.102" stroke="#121E4C" stroke-width="1.5" stroke-linecap="round" stroke-dasharray="14 14"/>
<rect x="1629.51" y="854" width="30" height="30" rx="15" transform="rotate(15 1629.51 854)" fill="#E1ECFF"/>
<path d="M1639.68 863.971C1639.53 863.93 1639.36 863.951 1639.22 864.031C1639.09 864.11 1638.99 864.241 1638.94 864.395L1638.48 866.134L1636.74 865.668C1636.59 865.627 1636.42 865.648 1636.28 865.728C1636.15 865.807 1636.05 865.938 1636 866.092L1635.02 869.774L1633.78 869.885C1633.7 869.892 1633.62 869.916 1633.54 869.956C1633.47 869.996 1633.41 870.051 1633.36 870.117C1633.31 870.183 1633.27 870.258 1633.25 870.339C1633.23 870.42 1633.23 870.503 1633.24 870.585L1634.01 874.947C1634.19 874.936 1634.38 874.963 1634.55 875.025C1634.73 875.087 1634.89 875.183 1635.03 875.308C1635.17 875.433 1635.28 875.584 1635.36 875.753C1635.43 875.922 1635.48 876.104 1635.49 876.29C1635.48 876.293 1635.49 876.301 1635.49 876.313C1635.51 876.523 1635.56 876.729 1635.63 876.925C1635.77 877.266 1635.95 877.467 1636.25 877.546C1636.54 877.624 1636.8 877.543 1637.09 877.316C1637.26 877.18 1637.41 877.02 1637.54 876.841C1637.7 876.588 1637.93 876.393 1638.21 876.283C1638.49 876.174 1638.79 876.157 1639.08 876.234C1639.37 876.31 1639.63 876.478 1639.81 876.711C1640 876.944 1640.11 877.23 1640.12 877.529L1640.12 877.552C1640.14 877.763 1640.19 877.97 1640.27 878.167C1640.41 878.51 1640.59 878.71 1640.89 878.788C1641.18 878.866 1641.44 878.785 1641.73 878.558C1641.9 878.421 1642.05 878.261 1642.18 878.081C1642.28 877.919 1642.41 877.781 1642.57 877.673C1642.73 877.565 1642.91 877.491 1643.09 877.455C1643.28 877.419 1643.47 877.421 1643.66 877.463C1643.85 877.504 1644.02 877.583 1644.18 877.695L1647.13 874.318C1647.18 874.255 1647.22 874.18 1647.25 874.099C1647.27 874.018 1647.28 873.933 1647.27 873.849C1647.26 873.766 1647.23 873.685 1647.19 873.613C1647.14 873.54 1647.09 873.478 1647.02 873.43L1645.85 872.624L1646.82 868.991C1646.86 868.837 1646.84 868.673 1646.76 868.536C1646.68 868.398 1646.55 868.297 1646.4 868.256L1644.66 867.79L1645.13 866.052C1645.17 865.898 1645.15 865.734 1645.07 865.596C1644.99 865.458 1644.86 865.358 1644.7 865.317L1639.68 863.971ZM1643.5 867.48L1639.64 866.444L1639.95 865.285L1643.81 866.321L1643.5 867.48ZM1645.51 869.26L1644.8 871.9L1641.73 869.777C1641.23 869.432 1640.62 869.273 1640.02 869.327L1636.29 869.659L1637.01 866.982L1645.51 869.26ZM1643.96 878.836L1643.96 878.828C1643.96 878.698 1643.92 878.571 1643.84 878.468C1643.76 878.364 1643.65 878.289 1643.52 878.253C1643.4 878.217 1643.26 878.223 1643.14 878.27C1643.02 878.317 1642.92 878.402 1642.85 878.512L1642.85 878.513L1642.84 878.52L1642.82 878.56C1642.65 878.796 1642.45 879.007 1642.22 879.187C1641.82 879.505 1641.3 879.727 1640.68 879.561C1640.06 879.394 1639.72 878.944 1639.53 878.466C1639.41 878.181 1639.35 877.88 1639.32 877.575L1639.32 877.567C1639.32 877.438 1639.27 877.315 1639.19 877.214C1639.11 877.113 1639 877.041 1638.88 877.008C1638.75 876.975 1638.62 876.982 1638.5 877.03C1638.38 877.077 1638.28 877.161 1638.21 877.271L1638.21 877.278C1638.16 877.347 1638.11 877.414 1638.06 877.479C1637.95 877.613 1637.79 877.787 1637.58 877.945C1637.18 878.263 1636.66 878.485 1636.04 878.318C1635.42 878.151 1635.08 877.701 1634.89 877.223C1634.78 876.939 1634.71 876.639 1634.69 876.334L1634.69 876.325C1634.68 876.195 1634.63 876.07 1634.55 875.969C1634.47 875.867 1634.36 875.795 1634.23 875.763C1634.11 875.731 1633.97 875.741 1633.85 875.792C1633.73 875.842 1633.63 875.93 1633.57 876.042L1633.56 876.049L1633.54 876.086C1633.38 876.319 1633.18 876.524 1632.96 876.695C1632.56 876.994 1631.99 877.233 1631.21 877.024C1631.06 876.983 1630.89 877.005 1630.76 877.084C1630.62 877.164 1630.52 877.295 1630.48 877.449C1630.44 877.602 1630.46 877.766 1630.54 877.904C1630.62 878.042 1630.75 878.142 1630.9 878.183C1632.12 878.509 1633.06 878.119 1633.68 877.655L1633.75 877.6L1633.78 877.67C1634.05 878.352 1634.62 879.178 1635.73 879.477C1636.85 879.776 1637.75 879.343 1638.33 878.889L1638.39 878.841L1638.41 878.914C1638.69 879.595 1639.25 880.421 1640.37 880.72C1641.48 881.018 1642.38 880.585 1642.96 880.131L1643.02 880.085C1643.03 880.112 1643.04 880.138 1643.05 880.166C1643.35 880.877 1643.98 881.687 1645.2 882.014C1645.35 882.055 1645.51 882.033 1645.65 881.954C1645.79 881.874 1645.89 881.743 1645.93 881.59C1645.97 881.436 1645.95 881.272 1645.87 881.134C1645.79 880.997 1645.66 880.896 1645.51 880.855C1644.73 880.645 1644.35 880.153 1644.16 879.696C1644.04 879.423 1643.98 879.132 1643.96 878.836Z" fill="#6DA2FF"/>
<rect x="968.514" y="301" width="30" height="30" rx="15" transform="rotate(15 968.514 301)" fill="#E1ECFF"/>
<path d="M978.679 310.971C978.525 310.93 978.361 310.951 978.224 311.031C978.086 311.11 977.985 311.241 977.944 311.395L977.478 313.134L975.74 312.668C975.586 312.627 975.422 312.648 975.284 312.728C975.146 312.807 975.046 312.938 975.005 313.092L974.018 316.774L972.779 316.885C972.697 316.892 972.616 316.916 972.543 316.956C972.471 316.996 972.407 317.051 972.356 317.117C972.306 317.183 972.27 317.258 972.25 317.339C972.23 317.42 972.227 317.503 972.241 317.585L973.006 321.947C973.192 321.936 973.378 321.963 973.553 322.025C973.729 322.087 973.89 322.183 974.028 322.308C974.165 322.433 974.277 322.584 974.355 322.753C974.434 322.922 974.478 323.104 974.485 323.29C974.484 323.293 974.486 323.301 974.487 323.313C974.507 323.523 974.556 323.729 974.633 323.925C974.77 324.266 974.955 324.467 975.249 324.546C975.542 324.624 975.802 324.543 976.091 324.316C976.262 324.18 976.412 324.02 976.537 323.841C976.696 323.588 976.931 323.393 977.209 323.283C977.487 323.174 977.793 323.157 978.082 323.234C978.37 323.31 978.627 323.478 978.814 323.711C979 323.944 979.108 324.23 979.12 324.529L979.122 324.552C979.143 324.763 979.193 324.97 979.27 325.167C979.408 325.51 979.594 325.71 979.885 325.788C980.176 325.866 980.437 325.785 980.728 325.558C980.899 325.421 981.05 325.261 981.175 325.081C981.277 324.919 981.412 324.781 981.57 324.673C981.727 324.565 981.906 324.491 982.093 324.455C982.281 324.419 982.474 324.421 982.661 324.463C982.847 324.504 983.024 324.583 983.179 324.695L986.127 321.318C986.183 321.255 986.225 321.18 986.249 321.099C986.274 321.018 986.281 320.933 986.271 320.849C986.261 320.766 986.233 320.685 986.189 320.613C986.145 320.54 986.086 320.478 986.017 320.43L984.85 319.624L985.823 315.991C985.864 315.837 985.843 315.673 985.763 315.536C985.684 315.398 985.552 315.297 985.399 315.256L983.66 314.79L984.126 313.052C984.167 312.898 984.146 312.734 984.066 312.596C983.986 312.458 983.855 312.358 983.702 312.317L978.679 310.971ZM982.501 314.48L978.637 313.444L978.948 312.285L982.812 313.321L982.501 314.48ZM984.509 316.26L983.801 318.9L980.728 316.777C980.229 316.432 979.624 316.273 979.019 316.327L975.291 316.659L976.008 313.982L984.509 316.26ZM982.959 325.836L982.959 325.828C982.958 325.698 982.915 325.571 982.837 325.468C982.758 325.364 982.648 325.289 982.523 325.253C982.398 325.217 982.265 325.223 982.143 325.27C982.022 325.317 981.919 325.402 981.85 325.512L981.849 325.513L981.844 325.52L981.817 325.56C981.649 325.796 981.448 326.007 981.221 326.187C980.815 326.505 980.299 326.727 979.678 326.561C979.057 326.394 978.72 325.944 978.528 325.466C978.415 325.181 978.345 324.88 978.321 324.575L978.321 324.567C978.316 324.438 978.271 324.315 978.19 324.214C978.11 324.113 978 324.041 977.876 324.008C977.752 323.975 977.62 323.982 977.5 324.03C977.381 324.077 977.279 324.161 977.211 324.271L977.206 324.278C977.16 324.347 977.11 324.414 977.057 324.479C976.947 324.613 976.787 324.787 976.584 324.945C976.18 325.263 975.664 325.485 975.042 325.318C974.419 325.151 974.082 324.701 973.891 324.223C973.778 323.939 973.709 323.639 973.686 323.334L973.686 323.325C973.681 323.195 973.635 323.07 973.553 322.969C973.472 322.867 973.359 322.795 973.233 322.763C973.107 322.731 972.974 322.741 972.854 322.792C972.734 322.842 972.634 322.93 972.568 323.042L972.564 323.049L972.539 323.086C972.379 323.319 972.183 323.524 971.958 323.695C971.56 323.994 970.989 324.233 970.212 324.024C970.058 323.983 969.894 324.005 969.757 324.084C969.619 324.164 969.518 324.295 969.477 324.449C969.436 324.602 969.457 324.766 969.537 324.904C969.617 325.042 969.748 325.142 969.901 325.183C971.118 325.509 972.061 325.119 972.679 324.655L972.749 324.6L972.777 324.67C973.051 325.352 973.615 326.178 974.731 326.477C975.847 326.776 976.748 326.343 977.326 325.889L977.386 325.841L977.415 325.914C977.689 326.595 978.253 327.421 979.367 327.72C980.482 328.018 981.383 327.585 981.962 327.131L982.02 327.085C982.03 327.112 982.041 327.138 982.053 327.166C982.355 327.877 982.978 328.687 984.197 329.014C984.351 329.055 984.515 329.033 984.652 328.954C984.79 328.874 984.891 328.743 984.932 328.59C984.973 328.436 984.952 328.272 984.872 328.134C984.792 327.997 984.661 327.896 984.508 327.855C983.726 327.645 983.351 327.153 983.157 326.696C983.043 326.423 982.976 326.132 982.959 325.836Z" fill="#121E4C"/>
<rect x="1782.75" y="189" width="30" height="30" rx="15" transform="rotate(-30 1782.75 189)" fill="#4578CD"/>
<path d="M1796.99 188.862C1796.85 188.942 1796.75 189.073 1796.71 189.226C1796.67 189.38 1796.69 189.544 1796.77 189.682L1797.67 191.241L1796.11 192.141C1795.97 192.22 1795.87 192.351 1795.83 192.505C1795.79 192.659 1795.81 192.822 1795.89 192.96L1797.8 196.261L1797 197.215C1796.95 197.279 1796.91 197.353 1796.88 197.433C1796.86 197.513 1796.85 197.596 1796.86 197.679C1796.88 197.761 1796.9 197.84 1796.95 197.911C1796.99 197.982 1797.05 198.044 1797.11 198.091L1800.74 200.635C1800.86 200.496 1801.01 200.383 1801.18 200.303C1801.35 200.223 1801.53 200.177 1801.72 200.168C1801.9 200.159 1802.09 200.187 1802.26 200.251C1802.44 200.314 1802.6 200.412 1802.73 200.539C1802.74 200.541 1802.74 200.546 1802.75 200.554C1802.91 200.688 1803.09 200.799 1803.29 200.883C1803.63 201.027 1803.9 201.038 1804.16 200.886C1804.43 200.734 1804.55 200.493 1804.6 200.128C1804.62 199.911 1804.61 199.692 1804.57 199.477C1804.51 199.186 1804.54 198.881 1804.66 198.607C1804.78 198.334 1804.98 198.105 1805.24 197.956C1805.5 197.806 1805.8 197.743 1806.09 197.775C1806.39 197.808 1806.67 197.935 1806.89 198.137L1806.91 198.152C1807.07 198.287 1807.25 198.398 1807.45 198.482C1807.79 198.627 1808.06 198.637 1808.32 198.486C1808.58 198.336 1808.71 198.094 1808.75 197.728C1808.78 197.51 1808.77 197.29 1808.73 197.074C1808.69 196.888 1808.69 196.695 1808.72 196.507C1808.76 196.319 1808.83 196.141 1808.94 195.982C1809.05 195.824 1809.18 195.689 1809.34 195.587C1809.51 195.484 1809.69 195.415 1809.88 195.385L1809.57 190.912C1809.57 190.828 1809.54 190.746 1809.5 190.671C1809.46 190.596 1809.41 190.531 1809.34 190.479C1809.28 190.427 1809.2 190.39 1809.12 190.37C1809.03 190.349 1808.95 190.347 1808.87 190.362L1807.47 190.617L1805.59 187.36C1805.51 187.222 1805.38 187.122 1805.23 187.081C1805.07 187.039 1804.91 187.061 1804.77 187.141L1803.21 188.041L1802.31 186.482C1802.23 186.344 1802.1 186.243 1801.95 186.202C1801.79 186.161 1801.63 186.183 1801.49 186.262L1796.99 188.862ZM1802.17 188.641L1798.71 190.641L1798.11 189.601L1801.57 187.601L1802.17 188.641ZM1804.85 188.48L1806.22 190.846L1802.54 191.518C1801.95 191.628 1801.41 191.943 1801.02 192.409L1798.62 195.28L1797.23 192.88L1804.85 188.48ZM1810.53 196.347L1810.52 196.341C1810.43 196.25 1810.31 196.191 1810.18 196.173C1810.05 196.155 1809.92 196.18 1809.81 196.243C1809.69 196.306 1809.6 196.405 1809.55 196.523C1809.5 196.642 1809.48 196.775 1809.51 196.902L1809.51 196.903L1809.51 196.911L1809.52 196.959C1809.57 197.245 1809.58 197.536 1809.55 197.824C1809.48 198.336 1809.28 198.858 1808.72 199.179C1808.16 199.501 1807.61 199.42 1807.13 199.218C1806.85 199.097 1806.59 198.933 1806.36 198.734L1806.35 198.729C1806.26 198.642 1806.14 198.586 1806.01 198.572C1805.88 198.557 1805.75 198.584 1805.64 198.649C1805.53 198.713 1805.44 198.811 1805.39 198.93C1805.34 199.048 1805.33 199.179 1805.36 199.304L1805.36 199.313C1805.37 199.395 1805.39 199.477 1805.39 199.56C1805.41 199.733 1805.42 199.97 1805.39 200.224C1805.33 200.735 1805.12 201.257 1804.56 201.579C1804 201.902 1803.45 201.821 1802.97 201.619C1802.69 201.497 1802.43 201.334 1802.2 201.135L1802.19 201.129C1802.1 201.04 1801.98 200.984 1801.85 200.97C1801.72 200.956 1801.59 200.985 1801.48 201.051C1801.37 201.118 1801.28 201.219 1801.23 201.339C1801.18 201.46 1801.17 201.593 1801.2 201.719L1801.21 201.726L1801.21 201.771C1801.27 202.048 1801.27 202.332 1801.23 202.611C1801.16 203.104 1800.93 203.677 1800.23 204.079C1800.09 204.159 1799.99 204.29 1799.95 204.444C1799.91 204.597 1799.93 204.761 1800.01 204.899C1800.09 205.037 1800.22 205.137 1800.38 205.178C1800.53 205.22 1800.69 205.198 1800.83 205.119C1801.92 204.489 1802.31 203.545 1802.42 202.78L1802.43 202.692L1802.5 202.722C1803.18 203.011 1804.16 203.196 1805.16 202.619C1806.16 202.041 1806.49 201.097 1806.58 200.367L1806.59 200.291L1806.66 200.322C1807.34 200.61 1808.32 200.795 1809.32 200.219C1810.32 199.642 1810.65 198.698 1810.74 197.968L1810.75 197.894C1810.77 197.906 1810.8 197.917 1810.83 197.928C1811.54 198.217 1812.56 198.349 1813.65 197.719C1813.79 197.639 1813.89 197.508 1813.93 197.354C1813.97 197.201 1813.95 197.037 1813.87 196.899C1813.79 196.761 1813.66 196.661 1813.5 196.619C1813.35 196.578 1813.19 196.6 1813.05 196.679C1812.35 197.084 1811.74 197.001 1811.28 196.815C1811 196.703 1810.75 196.544 1810.53 196.347Z" fill="white"/>
<rect x="612.75" y="678" width="30" height="30" rx="15" fill="#6DA2FF"/>
<path d="M625.15 685C624.991 685 624.838 685.063 624.726 685.176C624.613 685.288 624.55 685.441 624.55 685.6V687.4H622.75C622.591 687.4 622.438 687.463 622.326 687.576C622.213 687.688 622.15 687.841 622.15 688V691.811L620.982 692.239C620.904 692.268 620.833 692.312 620.773 692.37C620.713 692.427 620.665 692.496 620.634 692.573C620.602 692.65 620.586 692.732 620.588 692.815C620.59 692.898 620.609 692.98 620.644 693.055L622.512 697.07C622.688 697.012 622.875 696.989 623.06 697.004C623.245 697.018 623.426 697.07 623.592 697.155C623.757 697.24 623.904 697.357 624.023 697.5C624.143 697.642 624.233 697.807 624.288 697.985C624.288 697.988 624.291 697.995 624.295 698.006C624.369 698.204 624.47 698.39 624.595 698.56C624.816 698.854 625.046 699 625.35 699C625.654 699 625.884 698.854 626.104 698.56C626.234 698.384 626.337 698.191 626.412 697.986C626.5 697.7 626.677 697.451 626.917 697.273C627.158 697.096 627.448 697 627.747 696.999C628.046 696.999 628.337 697.094 628.577 697.271C628.818 697.448 628.996 697.697 629.085 697.982L629.093 698.004C629.168 698.202 629.27 698.389 629.396 698.559C629.617 698.855 629.848 699 630.15 699C630.452 699 630.682 698.854 630.904 698.56C631.034 698.384 631.138 698.189 631.213 697.983C631.27 697.801 631.364 697.632 631.488 697.487C631.613 697.342 631.766 697.224 631.938 697.141C632.11 697.057 632.297 697.01 632.488 697.002C632.679 696.993 632.87 697.024 633.048 697.092L635.023 693.067C635.06 692.991 635.081 692.908 635.084 692.824C635.087 692.739 635.072 692.655 635.04 692.577C635.008 692.499 634.96 692.428 634.899 692.369C634.838 692.311 634.766 692.266 634.686 692.238L633.35 691.761V688C633.35 687.841 633.287 687.688 633.174 687.576C633.062 687.463 632.909 687.4 632.75 687.4H630.95V685.6C630.95 685.441 630.887 685.288 630.774 685.176C630.662 685.063 630.509 685 630.35 685H625.15ZM629.75 687.4H625.75V686.2H629.75V687.4ZM632.15 688.6V691.333L628.632 690.078C628.06 689.874 627.435 689.876 626.864 690.086L623.35 691.371V688.6H632.15ZM633.132 698.251L633.129 698.243C633.095 698.118 633.021 698.007 632.918 697.927C632.816 697.847 632.69 697.803 632.56 697.8C632.43 697.798 632.302 697.839 632.197 697.915C632.092 697.992 632.014 698.1 631.976 698.225V698.226L631.973 698.234L631.957 698.28C631.856 698.552 631.717 698.807 631.544 699.04C631.234 699.452 630.792 699.8 630.15 699.8C629.508 699.8 629.065 699.452 628.756 699.04C628.573 698.794 628.428 698.522 628.325 698.233L628.323 698.226C628.285 698.103 628.209 697.995 628.106 697.918C628.002 697.842 627.877 697.801 627.749 697.801C627.62 697.801 627.495 697.842 627.391 697.919C627.288 697.996 627.212 698.103 627.175 698.226L627.172 698.235C627.145 698.314 627.114 698.391 627.08 698.467C627.008 698.626 626.898 698.835 626.744 699.04C626.436 699.452 625.995 699.8 625.35 699.8C624.705 699.8 624.264 699.452 623.955 699.04C623.773 698.794 623.629 698.523 623.527 698.234L623.524 698.226C623.487 698.101 623.409 697.992 623.304 697.916C623.199 697.839 623.072 697.798 622.942 697.8C622.812 697.802 622.686 697.846 622.583 697.926C622.48 698.005 622.406 698.116 622.372 698.242L622.369 698.249L622.355 698.292C622.261 698.558 622.125 698.807 621.952 699.03C621.644 699.422 621.155 699.8 620.35 699.8C620.191 699.8 620.038 699.863 619.926 699.976C619.813 700.088 619.75 700.241 619.75 700.4C619.75 700.559 619.813 700.712 619.926 700.824C620.038 700.937 620.191 701 620.35 701C621.609 701 622.42 700.378 622.896 699.77L622.95 699.699L622.995 699.76C623.436 700.348 624.195 701 625.35 701C626.505 701 627.264 700.348 627.704 699.76L627.75 699.698L627.796 699.761C628.238 700.348 628.996 701 630.15 701C631.304 701 632.062 700.348 632.504 699.76L632.548 699.7C632.564 699.724 632.582 699.746 632.6 699.77C633.076 700.378 633.888 701 635.15 701C635.309 701 635.462 700.937 635.574 700.824C635.687 700.712 635.75 700.559 635.75 700.4C635.75 700.241 635.687 700.088 635.574 699.976C635.462 699.863 635.309 699.8 635.15 699.8C634.34 699.8 633.852 699.422 633.546 699.03C633.365 698.796 633.225 698.533 633.132 698.251Z" fill="white"/>
<rect x="1027.75" y="813" width="30" height="30" rx="15" transform="rotate(30 1027.75 813)" fill="#6DA2FF"/>
<path d="M1043.61 830.71C1043.81 831.466 1043.36 832.238 1042.61 832.432L1037.63 833.768L1035.04 842.229L1033.23 842.721L1033.56 834.865L1028.56 836.204L1027.7 838.379L1026.33 838.739L1026.39 835.33L1024.63 832.395L1026 832.015L1027.86 833.488L1032.82 832.159L1028.61 825.497L1030.43 825.018L1036.9 831.051L1041.89 829.715C1042.61 829.507 1043.42 829.976 1043.61 830.71Z" fill="#121E4C"/>
<rect x="1728.75" y="569" width="30" height="30" rx="15" fill="#6DA2FF"/>
<path d="M1751.34 576.408C1751.89 576.962 1751.89 577.853 1751.34 578.397L1747.69 582.046L1749.68 590.668L1748.35 592L1744.71 585.03L1741.06 588.688L1741.4 591.006L1740.39 592L1738.74 589.017L1735.75 587.356L1736.74 586.343L1739.09 586.69L1742.72 583.06L1735.75 579.391L1737.08 578.069L1745.7 580.057L1749.35 576.408C1749.87 575.864 1750.81 575.864 1751.34 576.408Z" fill="#121E4C"/>
<rect x="188.75" y="835" width="30" height="30" rx="15" fill="#0C47B8"/>
<path d="M197.25 853.789C197.25 854.531 197.567 855.196 198.062 855.659V857.158C198.062 857.621 198.428 858 198.875 858H199.688C200.134 858 200.5 857.621 200.5 857.158V856.316H207V857.158C207 857.621 207.366 858 207.812 858H208.625C209.072 858 209.437 857.621 209.437 857.158V855.659C209.933 855.196 210.25 854.531 210.25 853.789V845.368C210.25 842.421 207.341 842 203.75 842C200.159 842 197.25 842.421 197.25 845.368V853.789ZM200.094 854.632C199.419 854.632 198.875 854.067 198.875 853.368C198.875 852.669 199.419 852.105 200.094 852.105C200.768 852.105 201.312 852.669 201.312 853.368C201.312 854.067 200.768 854.632 200.094 854.632ZM207.406 854.632C206.732 854.632 206.188 854.067 206.188 853.368C206.188 852.669 206.732 852.105 207.406 852.105C208.081 852.105 208.625 852.669 208.625 853.368C208.625 854.067 208.081 854.632 207.406 854.632ZM208.625 849.579H198.875V845.368H208.625V849.579Z" fill="white"/>
<rect x="1424.75" y="295" width="30" height="30" rx="15" fill="#E1ECFF"/>
<path d="M1433.25 313.789C1433.25 314.531 1433.57 315.196 1434.06 315.659V317.158C1434.06 317.621 1434.43 318 1434.88 318H1435.69C1436.13 318 1436.5 317.621 1436.5 317.158V316.316H1443V317.158C1443 317.621 1443.37 318 1443.81 318H1444.62C1445.07 318 1445.44 317.621 1445.44 317.158V315.659C1445.93 315.196 1446.25 314.531 1446.25 313.789V305.368C1446.25 302.421 1443.34 302 1439.75 302C1436.16 302 1433.25 302.421 1433.25 305.368V313.789ZM1436.09 314.632C1435.42 314.632 1434.88 314.067 1434.88 313.368C1434.88 312.669 1435.42 312.105 1436.09 312.105C1436.77 312.105 1437.31 312.669 1437.31 313.368C1437.31 314.067 1436.77 314.632 1436.09 314.632ZM1443.41 314.632C1442.73 314.632 1442.19 314.067 1442.19 313.368C1442.19 312.669 1442.73 312.105 1443.41 312.105C1444.08 312.105 1444.62 312.669 1444.62 313.368C1444.62 314.067 1444.08 314.632 1443.41 314.632ZM1444.62 309.579H1434.88V305.368H1444.62V309.579Z" fill="#0C47B8"/>
<rect x="1233.75" y="824" width="30" height="30" rx="15" fill="#D2D5E3"/>
<path d="M1242.25 842.789C1242.25 843.531 1242.57 844.196 1243.06 844.659V846.158C1243.06 846.621 1243.43 847 1243.88 847H1244.69C1245.13 847 1245.5 846.621 1245.5 846.158V845.316H1252V846.158C1252 846.621 1252.37 847 1252.81 847H1253.62C1254.07 847 1254.44 846.621 1254.44 846.158V844.659C1254.93 844.196 1255.25 843.531 1255.25 842.789V834.368C1255.25 831.421 1252.34 831 1248.75 831C1245.16 831 1242.25 831.421 1242.25 834.368V842.789ZM1245.09 843.632C1244.42 843.632 1243.88 843.067 1243.88 842.368C1243.88 841.669 1244.42 841.105 1245.09 841.105C1245.77 841.105 1246.31 841.669 1246.31 842.368C1246.31 843.067 1245.77 843.632 1245.09 843.632ZM1252.41 843.632C1251.73 843.632 1251.19 843.067 1251.19 842.368C1251.19 841.669 1251.73 841.105 1252.41 841.105C1253.08 841.105 1253.62 841.669 1253.62 842.368C1253.62 843.067 1253.08 843.632 1252.41 843.632ZM1253.62 838.579H1243.88V834.368H1253.62V838.579Z" fill="#6DA2FF"/>
</svg>
