<svg width="2057" height="1063" viewBox="0 0 2057 1063" fill="none" xmlns="http://www.w3.org/2000/svg">
<path d="M14.7425 450.102C-18.21 495.657 12.12 616.462 53.1315 730.919C98.1728 856.623 256.541 886.661 366.879 811.458C482.846 732.419 618.444 663.303 694.243 705.5C776.731 751.421 766.292 802.043 954.119 837.789C1026.82 851.626 1110.55 816.761 1110.71 742.751C1110.97 621.47 991.247 514.728 961.497 402.253C949.924 358.497 973.219 314.096 1013.18 292.842C1104.18 244.44 1238.26 227.203 1326.24 253C1510.6 297.5 1628.16 552.11 1644.86 718.383C1659.35 862.55 1632.53 937.566 1599.86 975.841C1553.2 1030.5 1497.91 1061.5 1430.74 1061.5C1373.02 1061.5 1333.37 1047.93 1315.89 1041.3C1275.55 1026 1250.34 957.588 1239.27 913.613C1233.28 889.788 1244.7 851.106 1261.23 807.251C1290.91 728.575 1334.84 707.004 1416.24 669.5C1439.74 658.671 1506.51 643.175 1553.2 656.355C1658.06 685.959 1660.17 656.355 1677.6 653.919C1707.48 649.741 1756.65 565.131 1819.29 476.023C1882.1 386.679 1889.79 261.582 1883.38 164.206C1880.44 119.585 1869.55 88.0795 1858.54 66.8311C1842.7 36.2522 1814.66 18.2031 1788.47 8.72072C1753.26 -4.02786 1721.41 21.3603 1725.67 58.5634C1730.26 98.6467 1784.36 162.05 1813.21 209.02C1831.47 238.755 1852.84 266.215 1905.26 343.3C1928.74 377.846 1954.9 399.473 1977.43 412.636C1985.75 417.496 1994.06 422.434 2002.71 426.67C2012.7 431.561 2022.9 434.517 2032.6 435.444C2039.1 436.762 2044.57 439.398 2055.75 450.102" stroke="#121E4C" stroke-width="1.5" stroke-linecap="round" stroke-dasharray="14 14"/>
<rect x="1614.57" y="850" width="65" height="65" rx="32.5" transform="rotate(15 1614.57 850)" fill="#E1ECFF"/>
<path d="M1636.47 869.241C1636.09 869.14 1635.69 869.193 1635.35 869.388C1635.02 869.582 1634.77 869.903 1634.67 870.279L1633.53 874.536L1629.27 873.395C1628.9 873.294 1628.5 873.347 1628.16 873.542C1627.82 873.737 1627.58 874.057 1627.47 874.434L1625.06 883.445L1622.03 883.717C1621.82 883.735 1621.63 883.795 1621.45 883.893C1621.27 883.991 1621.12 884.124 1620.99 884.286C1620.87 884.447 1620.78 884.632 1620.73 884.829C1620.68 885.027 1620.67 885.232 1620.71 885.432L1622.58 896.11C1623.04 896.084 1623.49 896.148 1623.92 896.3C1624.35 896.452 1624.75 896.687 1625.08 896.994C1625.42 897.3 1625.69 897.67 1625.88 898.083C1626.08 898.495 1626.19 898.942 1626.2 899.397C1626.2 899.405 1626.2 899.424 1626.21 899.453C1626.26 899.967 1626.38 900.471 1626.56 900.952C1626.9 901.786 1627.35 902.278 1628.07 902.471C1628.79 902.663 1629.43 902.465 1630.13 901.908C1630.55 901.575 1630.92 901.183 1631.22 900.745C1631.61 900.126 1632.19 899.648 1632.87 899.381C1633.55 899.114 1634.3 899.071 1635.01 899.259C1635.71 899.447 1636.34 899.856 1636.8 900.427C1637.26 900.997 1637.52 901.699 1637.55 902.429L1637.55 902.487C1637.6 903.003 1637.73 903.509 1637.92 903.992C1638.25 904.832 1638.71 905.321 1639.42 905.512C1640.13 905.703 1640.77 905.505 1641.48 904.949C1641.9 904.615 1642.27 904.221 1642.58 903.781C1642.83 903.386 1643.16 903.046 1643.54 902.782C1643.93 902.519 1644.37 902.337 1644.83 902.249C1645.29 902.16 1645.76 902.167 1646.22 902.268C1646.67 902.369 1647.1 902.562 1647.48 902.837L1654.7 894.571C1654.84 894.415 1654.94 894.232 1655 894.034C1655.06 893.837 1655.08 893.628 1655.05 893.423C1655.03 893.217 1654.96 893.02 1654.85 892.843C1654.74 892.666 1654.6 892.514 1654.43 892.396L1651.57 890.422L1653.96 881.53C1654.06 881.153 1654 880.752 1653.81 880.415C1653.62 880.078 1653.29 879.832 1652.92 879.731L1648.66 878.59L1649.8 874.334C1649.9 873.958 1649.85 873.557 1649.66 873.22C1649.46 872.882 1649.14 872.636 1648.76 872.535L1636.47 869.241ZM1645.82 877.83L1636.37 875.296L1637.13 872.458L1646.58 874.993L1645.82 877.83ZM1650.74 882.188L1649.01 888.65L1641.49 883.453C1640.26 882.608 1638.78 882.219 1637.3 882.352L1628.18 883.165L1629.93 876.613L1650.74 882.188ZM1646.95 905.63L1646.94 905.61C1646.94 905.291 1646.84 904.982 1646.65 904.728C1646.45 904.474 1646.19 904.289 1645.88 904.202C1645.57 904.115 1645.25 904.129 1644.95 904.244C1644.65 904.358 1644.4 904.566 1644.23 904.836L1644.23 904.84L1644.22 904.855L1644.15 904.954C1643.74 905.532 1643.25 906.049 1642.69 906.489C1641.7 907.267 1640.43 907.81 1638.91 907.403C1637.4 906.996 1636.57 905.893 1636.1 904.723C1635.82 904.025 1635.65 903.29 1635.59 902.542L1635.59 902.523C1635.58 902.208 1635.47 901.905 1635.27 901.659C1635.08 901.413 1634.81 901.236 1634.5 901.155C1634.2 901.073 1633.88 901.092 1633.58 901.208C1633.29 901.323 1633.04 901.53 1632.88 901.798L1632.86 901.816C1632.75 901.985 1632.63 902.149 1632.5 902.307C1632.23 902.636 1631.84 903.062 1631.34 903.448C1630.35 904.227 1629.09 904.771 1627.56 904.362C1626.04 903.954 1625.22 902.851 1624.75 901.681C1624.47 900.985 1624.3 900.252 1624.25 899.505L1624.25 899.483C1624.23 899.165 1624.12 898.858 1623.92 898.61C1623.72 898.362 1623.45 898.186 1623.14 898.108C1622.83 898.03 1622.5 898.054 1622.21 898.177C1621.92 898.3 1621.67 898.515 1621.51 898.79L1621.5 898.806L1621.44 898.899C1621.05 899.468 1620.57 899.97 1620.02 900.388C1619.04 901.12 1617.65 901.704 1615.74 901.194C1615.37 901.094 1614.96 901.146 1614.63 901.341C1614.29 901.536 1614.04 901.857 1613.94 902.233C1613.84 902.609 1613.9 903.01 1614.09 903.347C1614.28 903.685 1614.61 903.931 1614.98 904.032C1617.96 904.83 1620.27 903.873 1621.78 902.738L1621.95 902.603L1622.02 902.775C1622.69 904.446 1624.07 906.468 1626.8 907.2C1629.54 907.932 1631.74 906.87 1633.16 905.759L1633.3 905.641L1633.37 905.82C1634.05 907.488 1635.43 909.51 1638.15 910.241C1640.88 910.972 1643.09 909.911 1644.5 908.8L1644.65 908.686C1644.67 908.753 1644.7 908.817 1644.73 908.884C1645.47 910.625 1646.99 912.609 1649.98 913.409C1650.35 913.509 1650.75 913.457 1651.09 913.262C1651.43 913.067 1651.67 912.746 1651.78 912.37C1651.88 911.994 1651.82 911.593 1651.63 911.256C1651.43 910.918 1651.11 910.672 1650.74 910.571C1648.82 910.058 1647.91 908.854 1647.43 907.735C1647.15 907.066 1646.99 906.354 1646.95 905.63Z" fill="#6DA2FF"/>
<rect x="951.566" y="276" width="65" height="65" rx="32.5" transform="rotate(15 951.566 276)" fill="#E1ECFF"/>
<path d="M973.469 295.241C973.092 295.14 972.691 295.193 972.354 295.388C972.017 295.582 971.771 295.903 971.67 296.279L970.529 300.536L966.273 299.395C965.897 299.294 965.496 299.347 965.159 299.542C964.821 299.737 964.575 300.057 964.474 300.434L962.06 309.445L959.027 309.717C958.824 309.735 958.628 309.795 958.45 309.893C958.271 309.991 958.116 310.124 957.992 310.286C957.868 310.447 957.779 310.632 957.73 310.829C957.682 311.027 957.675 311.232 957.71 311.432L959.583 322.11C960.037 322.084 960.492 322.148 960.922 322.3C961.351 322.452 961.746 322.687 962.083 322.994C962.42 323.3 962.692 323.67 962.885 324.083C963.077 324.495 963.185 324.942 963.203 325.397C963.201 325.405 963.204 325.424 963.206 325.453C963.255 325.967 963.376 326.471 963.565 326.952C963.901 327.786 964.353 328.278 965.071 328.471C965.79 328.663 966.427 328.465 967.134 327.908C967.552 327.575 967.919 327.183 968.224 326.745C968.614 326.126 969.191 325.648 969.871 325.381C970.552 325.114 971.3 325.071 972.006 325.259C972.713 325.447 973.341 325.856 973.798 326.427C974.255 326.997 974.518 327.699 974.549 328.429L974.553 328.487C974.604 329.003 974.726 329.509 974.917 329.992C975.253 330.832 975.708 331.321 976.421 331.512C977.134 331.703 977.771 331.505 978.484 330.949C978.903 330.615 979.272 330.221 979.579 329.781C979.829 329.386 980.158 329.046 980.545 328.782C980.931 328.519 981.368 328.337 981.827 328.249C982.286 328.16 982.759 328.167 983.216 328.268C983.673 328.369 984.104 328.562 984.483 328.837L991.702 320.571C991.838 320.415 991.94 320.232 992 320.034C992.061 319.837 992.079 319.628 992.053 319.423C992.028 319.217 991.959 319.02 991.852 318.843C991.745 318.666 991.601 318.514 991.431 318.396L988.574 316.422L990.957 307.53C991.058 307.153 991.005 306.752 990.81 306.415C990.615 306.078 990.294 305.832 989.918 305.731L985.662 304.59L986.803 300.334C986.903 299.958 986.851 299.557 986.656 299.22C986.461 298.882 986.14 298.636 985.764 298.535L973.469 295.241ZM982.825 303.83L973.367 301.296L974.127 298.458L983.585 300.993L982.825 303.83ZM987.739 308.188L986.008 314.65L978.486 309.453C977.262 308.608 975.781 308.219 974.3 308.352L965.176 309.165L966.932 302.613L987.739 308.188ZM983.946 331.63L983.945 331.61C983.944 331.291 983.839 330.982 983.647 330.728C983.455 330.474 983.185 330.289 982.879 330.202C982.573 330.115 982.246 330.129 981.949 330.244C981.652 330.358 981.4 330.566 981.231 330.836L981.23 330.84L981.218 330.855L981.15 330.954C980.738 331.532 980.247 332.049 979.691 332.489C978.698 333.267 977.433 333.81 975.914 333.403C974.395 332.996 973.57 331.893 973.099 330.723C972.822 330.025 972.652 329.29 972.592 328.542L972.591 328.523C972.581 328.208 972.469 327.905 972.273 327.659C972.077 327.413 971.807 327.236 971.503 327.155C971.198 327.073 970.876 327.092 970.583 327.208C970.291 327.323 970.043 327.53 969.876 327.798L969.863 327.816C969.749 327.985 969.628 328.149 969.499 328.307C969.23 328.636 968.836 329.062 968.341 329.448C967.352 330.227 966.089 330.771 964.565 330.362C963.04 329.954 962.216 328.851 961.747 327.681C961.472 326.985 961.303 326.252 961.246 325.505L961.245 325.483C961.235 325.165 961.121 324.858 960.921 324.61C960.722 324.362 960.447 324.186 960.138 324.108C959.829 324.03 959.503 324.054 959.21 324.177C958.916 324.3 958.67 324.515 958.51 324.79L958.499 324.806L958.438 324.899C958.047 325.468 957.567 325.97 957.017 326.388C956.042 327.12 954.645 327.704 952.742 327.194C952.366 327.094 951.965 327.146 951.628 327.341C951.29 327.536 951.044 327.857 950.943 328.233C950.842 328.609 950.895 329.01 951.09 329.347C951.285 329.685 951.606 329.931 951.982 330.032C954.959 330.83 957.269 329.873 958.782 328.738L958.954 328.603L959.021 328.775C959.693 330.446 961.073 332.468 963.804 333.2C966.536 333.932 968.742 332.87 970.157 331.759L970.304 331.641L970.374 331.82C971.046 333.488 972.426 335.51 975.154 336.241C977.882 336.972 980.088 335.911 981.505 334.8L981.647 334.686C981.671 334.753 981.699 334.817 981.728 334.884C982.467 336.625 983.993 338.609 986.977 339.409C987.353 339.509 987.754 339.457 988.091 339.262C988.428 339.067 988.675 338.746 988.775 338.37C988.876 337.994 988.823 337.593 988.629 337.256C988.434 336.918 988.113 336.672 987.737 336.571C985.822 336.058 984.906 334.854 984.432 333.735C984.152 333.066 983.987 332.354 983.946 331.63Z" fill="#121E4C"/>
<rect x="1769.15" y="194.908" width="65" height="65" rx="32.5" transform="rotate(-30 1769.15 194.908)" fill="#4578CD"/>
<path d="M1798.24 193.027C1797.91 193.221 1797.66 193.542 1797.56 193.918C1797.46 194.295 1797.51 194.696 1797.71 195.033L1799.91 198.849L1796.09 201.052C1795.75 201.247 1795.51 201.568 1795.41 201.944C1795.31 202.32 1795.36 202.721 1795.55 203.058L1800.22 211.138L1798.27 213.475C1798.14 213.631 1798.04 213.812 1797.98 214.007C1797.93 214.202 1797.91 214.407 1797.94 214.609C1797.96 214.81 1798.03 215.004 1798.14 215.178C1798.24 215.352 1798.38 215.502 1798.55 215.619L1807.42 221.845C1807.73 221.505 1808.09 221.228 1808.5 221.032C1808.92 220.836 1809.36 220.724 1809.82 220.702C1810.27 220.68 1810.73 220.749 1811.15 220.905C1811.58 221.061 1811.97 221.3 1812.31 221.609C1812.31 221.616 1812.33 221.628 1812.35 221.646C1812.75 221.975 1813.19 222.246 1813.66 222.453C1814.49 222.805 1815.16 222.833 1815.8 222.461C1816.45 222.089 1816.76 221.498 1816.86 220.605C1816.92 220.074 1816.91 219.537 1816.81 219.011C1816.65 218.298 1816.72 217.552 1817.01 216.882C1817.3 216.212 1817.8 215.653 1818.43 215.286C1819.07 214.92 1819.8 214.765 1820.53 214.845C1821.25 214.925 1821.94 215.235 1822.47 215.731L1822.52 215.768C1822.92 216.097 1823.36 216.369 1823.84 216.575C1824.67 216.931 1825.34 216.955 1825.98 216.586C1826.62 216.217 1826.93 215.626 1827.04 214.73C1827.1 214.197 1827.08 213.658 1826.99 213.129C1826.88 212.673 1826.88 212.2 1826.96 211.74C1827.05 211.281 1827.23 210.844 1827.49 210.456C1827.76 210.069 1828.09 209.739 1828.49 209.488C1828.88 209.236 1829.33 209.068 1829.79 208.994L1829.05 198.045C1829.03 197.838 1828.98 197.637 1828.88 197.454C1828.78 197.272 1828.65 197.111 1828.48 196.984C1828.32 196.857 1828.13 196.766 1827.93 196.717C1827.73 196.667 1827.52 196.661 1827.32 196.698L1823.9 197.323L1819.3 189.35C1819.1 189.013 1818.78 188.767 1818.41 188.666C1818.03 188.565 1817.63 188.618 1817.29 188.812L1813.48 191.016L1811.27 187.2C1811.08 186.862 1810.76 186.616 1810.38 186.515C1810 186.414 1809.6 186.467 1809.27 186.662L1798.24 193.027ZM1810.93 192.484L1802.45 197.38L1800.98 194.836L1809.46 189.94L1810.93 192.484ZM1817.49 192.091L1820.83 197.884L1811.84 199.529C1810.38 199.797 1809.05 200.568 1808.1 201.71L1802.22 208.736L1798.83 202.862L1817.49 192.091ZM1831.38 211.349L1831.37 211.335C1831.14 211.111 1830.85 210.966 1830.53 210.922C1830.22 210.879 1829.9 210.939 1829.62 211.094C1829.34 211.249 1829.12 211.49 1828.99 211.781C1828.86 212.072 1828.83 212.397 1828.9 212.707L1828.9 212.711L1828.9 212.73L1828.93 212.848C1829.05 213.548 1829.06 214.261 1828.98 214.965C1828.83 216.218 1828.32 217.496 1826.96 218.282C1825.6 219.068 1824.23 218.872 1823.07 218.378C1822.38 218.08 1821.74 217.68 1821.17 217.193L1821.16 217.181C1820.93 216.966 1820.63 216.831 1820.32 216.795C1820.01 216.76 1819.69 216.826 1819.42 216.983C1819.15 217.141 1818.93 217.382 1818.81 217.671C1818.68 217.96 1818.65 218.281 1818.72 218.588L1818.73 218.61C1818.77 218.81 1818.8 219.012 1818.82 219.215C1818.86 219.638 1818.88 220.217 1818.81 220.84C1818.66 222.091 1818.15 223.368 1816.78 224.157C1815.41 224.946 1814.05 224.749 1812.89 224.254C1812.21 223.956 1811.57 223.557 1811 223.07L1810.98 223.054C1810.75 222.836 1810.45 222.7 1810.14 222.666C1809.82 222.632 1809.5 222.702 1809.23 222.865C1808.95 223.028 1808.74 223.275 1808.62 223.57C1808.5 223.865 1808.48 224.191 1808.56 224.499L1808.56 224.517L1808.59 224.626C1808.71 225.305 1808.73 226 1808.63 226.683C1808.46 227.891 1807.89 229.292 1806.18 230.277C1805.84 230.472 1805.6 230.793 1805.5 231.169C1805.4 231.545 1805.45 231.946 1805.64 232.283C1805.84 232.621 1806.16 232.867 1806.54 232.968C1806.91 233.068 1807.31 233.016 1807.65 232.821C1810.32 231.28 1811.28 228.97 1811.54 227.098L1811.57 226.881L1811.74 226.955C1813.4 227.661 1815.8 228.115 1818.25 226.701C1820.7 225.287 1821.51 222.977 1821.72 221.191L1821.74 221.003L1821.92 221.08C1823.57 221.784 1825.98 222.238 1828.43 220.826C1830.87 219.414 1831.68 217.104 1831.9 215.317L1831.92 215.136C1831.98 215.166 1832.05 215.192 1832.11 215.219C1833.87 215.927 1836.35 216.251 1839.03 214.706C1839.36 214.512 1839.61 214.191 1839.71 213.815C1839.81 213.438 1839.76 213.037 1839.56 212.7C1839.37 212.363 1839.05 212.116 1838.67 212.016C1838.3 211.915 1837.89 211.968 1837.56 212.162C1835.84 213.153 1834.34 212.949 1833.21 212.494C1832.54 212.219 1831.92 211.832 1831.38 211.349Z" fill="white"/>
<rect x="610.639" y="655.896" width="65" height="65" rx="32.5" fill="#6DA2FF"/>
<path d="M636.774 668.813C636.385 668.813 636.011 668.967 635.736 669.243C635.46 669.518 635.306 669.892 635.306 670.281V674.688H630.899C630.51 674.688 630.136 674.842 629.861 675.118C629.585 675.393 629.431 675.767 629.431 676.156V685.486L626.571 686.534C626.381 686.603 626.206 686.712 626.059 686.853C625.913 686.993 625.797 687.163 625.719 687.35C625.641 687.538 625.603 687.74 625.607 687.943C625.611 688.147 625.658 688.347 625.743 688.531L630.316 698.36C630.748 698.217 631.205 698.162 631.658 698.197C632.112 698.233 632.555 698.358 632.959 698.567C633.364 698.775 633.723 699.062 634.016 699.411C634.309 699.76 634.529 700.163 634.663 700.598C634.663 700.606 634.671 700.624 634.681 700.651C634.862 701.135 635.109 701.591 635.415 702.006C635.956 702.725 636.52 703.083 637.264 703.083C638.008 703.083 638.572 702.727 639.111 702.006C639.428 701.576 639.681 701.103 639.863 700.6C640.079 699.902 640.513 699.291 641.101 698.857C641.689 698.422 642.4 698.187 643.131 698.186C643.863 698.185 644.575 698.418 645.164 698.851C645.754 699.283 646.189 699.893 646.407 700.59L646.427 700.645C646.61 701.13 646.859 701.588 647.167 702.004C647.71 702.729 648.276 703.083 649.014 703.083C649.752 703.083 650.316 702.727 650.861 702.006C651.179 701.574 651.434 701.099 651.617 700.594C651.756 700.148 651.985 699.734 652.29 699.38C652.596 699.025 652.97 698.737 653.391 698.532C653.812 698.328 654.27 698.212 654.738 698.191C655.205 698.171 655.672 698.246 656.109 698.413L660.942 688.56C661.033 688.375 661.084 688.172 661.092 687.965C661.099 687.758 661.063 687.552 660.985 687.36C660.907 687.169 660.789 686.996 660.64 686.852C660.491 686.709 660.313 686.599 660.118 686.53L656.847 685.362V676.156C656.847 675.767 656.693 675.393 656.417 675.118C656.142 674.842 655.768 674.688 655.379 674.688H650.972V670.281C650.972 669.892 650.818 669.518 650.542 669.243C650.267 668.967 649.893 668.813 649.504 668.813H636.774ZM648.035 674.688H638.243V671.75H648.035V674.688ZM653.91 677.625V684.315L645.299 681.242C643.898 680.743 642.367 680.75 640.971 681.262L632.368 684.409V677.625H653.91ZM656.313 701.25L656.307 701.231C656.223 700.923 656.042 700.652 655.791 700.456C655.539 700.261 655.231 700.152 654.913 700.147C654.594 700.142 654.283 700.24 654.025 700.428C653.768 700.615 653.578 700.881 653.485 701.186V701.19L653.477 701.207L653.438 701.321C653.19 701.986 652.849 702.612 652.425 703.181C651.668 704.19 650.587 705.042 649.014 705.042C647.441 705.042 646.358 704.19 645.601 703.181C645.153 702.579 644.798 701.913 644.547 701.205L644.541 701.188C644.449 700.887 644.263 700.623 644.01 700.436C643.757 700.248 643.45 700.147 643.135 700.148C642.82 700.148 642.514 700.249 642.261 700.437C642.008 700.625 641.822 700.888 641.731 701.19L641.723 701.211C641.657 701.404 641.582 701.593 641.498 701.779C641.324 702.167 641.053 702.68 640.675 703.181C639.921 704.19 638.842 705.042 637.264 705.042C635.686 705.042 634.605 704.19 633.849 703.181C633.403 702.58 633.05 701.915 632.801 701.209L632.795 701.188C632.703 700.883 632.513 700.617 632.256 700.429C631.999 700.241 631.688 700.142 631.369 700.146C631.051 700.151 630.743 700.258 630.491 700.453C630.239 700.648 630.057 700.92 629.973 701.227L629.967 701.245L629.932 701.35C629.702 702.001 629.368 702.611 628.945 703.156C628.193 704.115 626.994 705.042 625.024 705.042C624.635 705.042 624.261 705.197 623.986 705.472C623.71 705.747 623.556 706.121 623.556 706.511C623.556 706.9 623.71 707.274 623.986 707.549C624.261 707.825 624.635 707.979 625.024 707.979C628.107 707.979 630.091 706.458 631.258 704.969L631.389 704.795L631.499 704.944C632.58 706.383 634.436 707.979 637.264 707.979C640.092 707.979 641.948 706.383 643.027 704.944L643.139 704.791L643.253 704.946C644.334 706.383 646.19 707.979 649.014 707.979C651.838 707.979 653.694 706.383 654.775 704.944L654.883 704.797C654.924 704.856 654.967 704.911 655.012 704.967C656.178 706.458 658.165 707.979 661.254 707.979C661.643 707.979 662.017 707.825 662.292 707.549C662.568 707.274 662.722 706.9 662.722 706.511C662.722 706.121 662.568 705.747 662.292 705.472C662.017 705.197 661.643 705.042 661.254 705.042C659.272 705.042 658.075 704.115 657.327 703.158C656.883 702.584 656.54 701.939 656.313 701.25Z" fill="white"/>
<rect x="1003.24" y="785" width="65" height="65" rx="32.5" transform="rotate(30 1003.24 785)" fill="#6DA2FF"/>
<path d="M1034.97 824.077C1035.36 825.523 1034.51 826.999 1033.07 827.371L1023.53 829.927L1018.58 846.113L1015.12 847.054L1015.75 832.025L1006.19 834.587L1004.53 838.749L1001.92 839.436L1002.04 832.914L998.668 827.301L1001.28 826.573L1004.84 829.392L1014.33 826.849L1006.29 814.105L1009.76 813.188L1022.14 824.729L1031.68 822.174C1033.07 821.775 1034.62 822.673 1034.97 824.077Z" fill="#121E4C"/>
<rect x="1703.74" y="559" width="65" height="65" rx="32.5" fill="#6DA2FF"/>
<path d="M1750.76 576.977C1751.82 578.035 1751.82 579.74 1750.76 580.781L1743.78 587.763L1747.58 604.256L1745.05 606.804L1738.09 593.47L1731.09 600.469L1731.74 604.902L1729.82 606.804L1726.66 601.097L1720.93 597.92L1722.83 595.982L1727.32 596.646L1734.27 589.701L1720.93 582.684L1723.48 580.153L1739.97 583.958L1746.95 576.977C1747.96 575.936 1749.75 575.936 1750.76 576.977Z" fill="#121E4C"/>
<rect x="192.047" y="810.304" width="65" height="65" rx="32.5" fill="#0C47B8"/>
<path d="M210.67 850.61C210.67 852.137 211.346 853.507 212.405 854.461V857.549C212.405 858.503 213.185 859.283 214.139 859.283H215.874C216.828 859.283 217.609 858.503 217.609 857.549V855.814H231.486V857.549C231.486 858.503 232.266 859.283 233.22 859.283H234.955C235.909 859.283 236.69 858.503 236.69 857.549V854.461C237.748 853.507 238.424 852.137 238.424 850.61V833.264C238.424 827.192 232.214 826.325 224.547 826.325C216.88 826.325 210.67 827.192 210.67 833.264V850.61ZM216.741 852.345C215.301 852.345 214.139 851.183 214.139 849.743C214.139 848.303 215.301 847.141 216.741 847.141C218.181 847.141 219.343 848.303 219.343 849.743C219.343 851.183 218.181 852.345 216.741 852.345ZM232.353 852.345C230.913 852.345 229.751 851.183 229.751 849.743C229.751 848.303 230.913 847.141 232.353 847.141C233.793 847.141 234.955 848.303 234.955 849.743C234.955 851.183 233.793 852.345 232.353 852.345ZM234.955 841.937H214.139V833.264H234.955V841.937Z" fill="white"/>
<rect x="1425.74" y="290" width="65" height="65" rx="32.5" fill="#E1ECFF"/>
<path d="M1444.37 330.306C1444.37 331.832 1445.04 333.203 1446.1 334.157V337.245C1446.1 338.199 1446.88 338.979 1447.83 338.979H1449.57C1450.52 338.979 1451.3 338.199 1451.3 337.245V335.51H1465.18V337.245C1465.18 338.199 1465.96 338.979 1466.92 338.979H1468.65C1469.6 338.979 1470.38 338.199 1470.38 337.245V334.157C1471.44 333.203 1472.12 331.832 1472.12 330.306V312.959C1472.12 306.888 1465.91 306.021 1458.24 306.021C1450.58 306.021 1444.37 306.888 1444.37 312.959V330.306ZM1450.44 332.041C1449 332.041 1447.83 330.878 1447.83 329.439C1447.83 327.999 1449 326.837 1450.44 326.837C1451.88 326.837 1453.04 327.999 1453.04 329.439C1453.04 330.878 1451.88 332.041 1450.44 332.041ZM1466.05 332.041C1464.61 332.041 1463.45 330.878 1463.45 329.439C1463.45 327.999 1464.61 326.837 1466.05 326.837C1467.49 326.837 1468.65 327.999 1468.65 329.439C1468.65 330.878 1467.49 332.041 1466.05 332.041ZM1468.65 321.633H1447.83V312.959H1468.65V321.633Z" fill="#0C47B8"/>
<rect x="1214.74" y="824" width="65" height="65" rx="32.5" fill="#D2D5E3"/>
<path d="M1233.37 864.306C1233.37 865.832 1234.04 867.203 1235.1 868.157V871.245C1235.1 872.199 1235.88 872.979 1236.83 872.979H1238.57C1239.52 872.979 1240.3 872.199 1240.3 871.245V869.51H1254.18V871.245C1254.18 872.199 1254.96 872.979 1255.92 872.979H1257.65C1258.6 872.979 1259.38 872.199 1259.38 871.245V868.157C1260.44 867.203 1261.12 865.832 1261.12 864.306V846.959C1261.12 840.888 1254.91 840.021 1247.24 840.021C1239.58 840.021 1233.37 840.888 1233.37 846.959V864.306ZM1239.44 866.041C1238 866.041 1236.83 864.878 1236.83 863.439C1236.83 861.999 1238 860.837 1239.44 860.837C1240.88 860.837 1242.04 861.999 1242.04 863.439C1242.04 864.878 1240.88 866.041 1239.44 866.041ZM1255.05 866.041C1253.61 866.041 1252.45 864.878 1252.45 863.439C1252.45 861.999 1253.61 860.837 1255.05 860.837C1256.49 860.837 1257.65 861.999 1257.65 863.439C1257.65 864.878 1256.49 866.041 1255.05 866.041ZM1257.65 855.633H1236.83V846.959H1257.65V855.633Z" fill="#6DA2FF"/>
</svg>
