<svg width="411" height="537" viewBox="0 0 411 537" fill="none" xmlns="http://www.w3.org/2000/svg">
<path d="M410.783 535.75C258.616 487.25 -10.1602 436.705 1.09242 320.75C12.592 202.25 256.092 266.75 360.092 184.25C464.092 101.75 353.783 55.75 410.783 0.75" stroke="#121E4C" stroke-width="1.5" stroke-linecap="round" stroke-dasharray="14 14"/>
<rect x="106.281" y="396.75" width="65" height="65" rx="32.5" transform="rotate(30 106.281 396.75)" fill="#6DA2FF"/>
<path d="M138.011 435.826C138.399 437.273 137.546 438.749 136.109 439.121L126.572 441.676L121.621 457.862L118.155 458.804L118.792 443.774L109.231 446.336L107.574 450.498L104.96 451.186L105.078 444.664L101.708 439.05L104.325 438.323L107.878 441.141L117.366 438.599L109.326 425.855L112.799 424.938L125.18 436.479L134.716 433.924C136.107 433.525 137.661 434.422 138.011 435.826Z" fill="#121E4C"/>
</svg>
