<svg width="100" height="63" viewBox="0 0 100 63" fill="none" xmlns="http://www.w3.org/2000/svg">
<path d="M23.4977 27.4636L25.6925 27.7703M27.4883 30.5865L26.4621 28.2443M26.4621 28.2443L26.4293 28.1695C26.3434 27.9734 26.1619 27.8359 25.9499 27.8063L25.6925 27.7703M26.4621 28.2443L30.4411 24.5529C30.6857 24.326 31.0664 24.3347 31.3003 24.5727L35.5285 28.8743C35.7237 29.0729 36.0351 29.098 36.2597 28.9333C36.491 28.7636 36.5568 28.4465 36.412 28.1988L32.9013 22.1889C32.7669 21.9588 32.7955 21.6684 32.9722 21.4689L35.1532 19.0072C35.2295 18.9211 35.2802 18.8153 35.2995 18.7019L35.4976 17.5395C35.5755 17.0822 35.1395 16.7059 34.6985 16.8497L33.4464 17.2579C33.3343 17.2945 33.2349 17.3625 33.1603 17.4538L31.1345 19.9308C30.98 20.1198 30.7285 20.1998 30.4931 20.1349L23.4535 18.1926C23.239 18.1334 23.01 18.2103 22.8746 18.3869C22.6753 18.6468 22.7478 19.0224 23.0295 19.1894L28.5202 22.4446C28.8261 22.6259 28.9156 23.0276 28.7158 23.3217L25.6925 27.7703" stroke="#6DA2FF" stroke-width="0.833333"/>
<path d="M44.6745 18.564L46.8765 18.3014M49.3532 20.5629L47.7451 18.5631M47.7451 18.5631L47.6937 18.4992C47.5591 18.3318 47.3474 18.2452 47.1344 18.2706L46.8765 18.3014M47.7451 18.5631L50.6191 13.9873C50.7959 13.7057 51.1667 13.6172 51.4556 13.7874L56.6733 16.863C56.9144 17.0051 57.2224 16.95 57.3962 16.7336C57.575 16.5111 57.5552 16.1888 57.3504 15.9867L52.3748 11.0779C52.1846 10.8902 52.1359 10.6031 52.2541 10.3657L53.7145 7.43366C53.7656 7.33115 53.7867 7.21626 53.7756 7.10196L53.6611 5.92894C53.6161 5.46785 53.0954 5.21587 52.7068 5.46711L51.6047 6.17954C51.5058 6.24345 51.4277 6.33441 51.3795 6.44162L50.0735 9.34812C49.9738 9.57003 49.7515 9.71142 49.5067 9.70865L42.1929 9.62575C41.9696 9.62322 41.7681 9.75588 41.6836 9.96106C41.5595 10.2625 41.7283 10.6063 42.0446 10.6958L48.2086 12.4406C48.5518 12.5378 48.7439 12.9022 48.6282 13.2366L46.8765 18.3014" stroke="#6DA2FF" stroke-width="0.833333"/>
<path d="M74.8704 30.9477L75.7597 28.9292M79.1338 27.9748L76.4496 28.321M76.4496 28.321L76.3513 28.3337C76.1349 28.3616 75.9485 28.5009 75.8606 28.7003L75.7597 28.9292M76.4496 28.321L73.6942 23.5321C73.5199 23.2292 73.6354 22.8408 73.9482 22.6782L79.4405 19.8236C79.7062 19.6854 79.8213 19.3673 79.7043 19.0943C79.5956 18.8406 79.3185 18.7032 79.0482 18.7688L71.8328 20.5218C71.5875 20.5814 71.3316 20.487 71.186 20.2832L69.181 17.4771C69.1173 17.3879 69.0307 17.3176 68.9301 17.2733L67.7155 16.7382C67.289 16.5503 66.8121 16.8855 66.8456 17.3498L66.9387 18.6432C66.9474 18.7633 66.9913 18.878 67.065 18.973L69.0874 21.5807C69.2439 21.7824 69.258 22.0603 69.1229 22.2788L65.3188 28.432C65.1885 28.6427 65.2064 28.9115 65.3632 29.1013C65.5736 29.3558 65.9567 29.3811 66.2026 29.1567L71.0406 24.7407C71.2925 24.5108 71.6822 24.5257 71.9121 24.774L75.7597 28.9292" stroke="#6DA2FF" stroke-width="0.833333"/>
<path d="M49.4822 32.2402L49.584 62.0002M49.4822 32.2402C58.6434 33.0286 65.0718 44.247 67.1939 62.0002M49.4822 32.2402C40.5245 32.8315 33.3603 45.2171 31.9741 62.0002M49.4822 32.2402C41.7041 32.2402 34.3336 35.1342 28.7167 39.9501M49.4822 32.2402C57.5484 32.2402 64.9805 35.1342 70.5821 39.9501M49.584 62.0002H67.1939M49.584 62.0002H31.9741M67.1939 62.0002H80.2173C80.5579 62.0002 80.8347 61.7235 80.8275 61.383C80.6473 52.7871 76.71 45.2185 70.5821 39.9501M31.9741 62.0002H18.9507C18.6101 62.0002 18.3333 61.7235 18.3406 61.383C18.5259 52.7871 22.572 45.2185 28.7167 39.9501M28.7167 39.9501C44.8079 49.8665 53.9302 51.4822 70.5821 39.9501" stroke="#6DA2FF" stroke-width="1.25"/>
</svg>
