<svg width="100" height="62" viewBox="0 0 100 62" fill="none" xmlns="http://www.w3.org/2000/svg">
<rect width="17.5" height="1.66667" rx="0.383142" transform="matrix(1 0 0 -1 46.666 15)" fill="#6DA2FF"/>
<rect width="17.5" height="1.66667" rx="0.383142" transform="matrix(1 0 0 -1 45 12.5)" fill="#6DA2FF"/>
<rect width="17.5" height="0.833333" rx="0.383142" transform="matrix(1 0 0 -1 43.334 10)" fill="#6DA2FF"/>
<rect width="17.5" height="0.833333" rx="0.383142" transform="matrix(1 0 0 -1 41.666 8.3335)" fill="#6DA2FF"/>
<rect width="17.5" height="0.833333" rx="0.383142" transform="matrix(1 0 0 -1 40 6.6665)" fill="#6DA2FF"/>
<rect width="17.5" height="0.833333" rx="0.383142" transform="matrix(1 0 0 -1 38.334 5)" fill="#6DA2FF"/>
<path d="M3.55078 2.07031C8.50767 7.08945 13.4127 12.5991 18.7559 17.2568L18.8643 17.3506L19.0068 17.3584C24.9482 17.6832 31.0191 17.4345 36.9355 17.4336L69.9473 17.4385H69.9482C72.6291 17.4366 76.1919 17.287 79.5986 17.2588C83.0466 17.2303 86.4055 17.3235 88.8535 17.7959H88.8545C91.7347 18.3516 94.1386 19.5594 96.3184 21.4219C94.7926 21.4129 93.3132 21.4641 91.7314 21.8799L91.4844 21.9453L91.4297 22.1953L91.3496 22.5645L91.2783 22.8926L91.584 23.0322C92.6871 23.5345 93.9308 23.694 95.1514 23.7295C96.2691 23.762 97.4319 23.6912 98.4492 23.665C98.985 24.5965 99.4557 25.5349 99.5635 26.5293C99.6606 27.4224 99.3939 28.2486 98.7881 28.9053C98.377 29.3507 97.7488 29.6708 97.0215 29.9033C96.2995 30.1341 95.5223 30.2655 94.8496 30.3613C91.2496 30.8736 87.4151 30.6182 83.6953 30.6191L64.7969 30.6094H64.6084L64.4844 30.75C63.0405 32.3854 61.4371 33.8461 59.8965 35.4668C50.9733 43.7262 42.7196 52.9396 34.0615 61.4346C33.6083 61.4441 33.0331 61.4756 32.415 61.5078C31.7092 61.5446 30.9351 61.581 30.1787 61.583C29.4207 61.5851 28.6934 61.5533 28.0791 61.457C27.569 61.3771 27.1775 61.2568 26.9121 61.1064C26.9181 60.9921 26.9263 60.9172 26.9443 60.8496C26.9718 60.7471 27.0236 60.6353 27.1523 60.4131C29.064 57.1128 31.4072 53.9502 33.5449 50.7236V50.7227L46.3936 31.2637L46.8213 30.6162L46.0459 30.6172C35.0608 30.6282 23.9012 31.0715 13.7129 26.6035C12.0785 25.8868 10.4982 24.9053 9.44922 23.5088C8.95451 22.8501 8.24156 21.4269 7.41309 19.5469C6.5915 17.6825 5.67431 15.4121 4.77051 13.0928C3.86693 10.774 2.97741 8.40988 2.21094 6.36035C1.56889 4.64352 1.0088 3.14512 0.602539 2.08008L3.55078 2.07031Z" stroke="#6DA2FF" stroke-width="0.833333"/>
</svg>
