<svg width="100" height="62" viewBox="0 0 100 62" fill="none" xmlns="http://www.w3.org/2000/svg">
<path d="M47.9745 56.443L47.9526 19.9825L47.9833 8.22362L47.9872 4.58019C47.9837 3.8331 47.9441 3.06775 47.9896 2.32232C48.0187 1.84468 48.144 1.40644 48.4296 1.01203C48.8605 0.417324 49.4523 0.124512 50.168 0.00846244C50.2293 0.00410594 50.2906 0.00141812 50.3521 0.000305826C51.0332 -0.00961217 51.67 0.221653 52.1536 0.701239C52.5397 1.08294 52.7794 1.5844 52.8321 2.12035C52.8873 2.66982 52.8389 3.26027 52.839 3.81484L52.84 7.39477L52.8558 18.758L52.8907 56.4409L59.3041 56.4449C60.2208 58.2054 60.9112 60.13 61.666 61.9632L50.6943 61.9887L39.166 62C39.5512 61.101 39.9424 60.2046 40.3395 59.3106C40.7675 58.3625 41.2258 57.4247 41.5723 56.4439L47.9745 56.443ZM50.0327 0.883563C49.5937 1.0175 49.2432 1.27064 49.0339 1.68164C48.9386 1.86572 48.8829 2.06714 48.8703 2.27338C48.8316 2.8819 48.8628 3.511 48.8622 4.12128L48.8612 7.66849L48.8679 18.7411L48.9016 56.439L50.8357 56.4384L51.9517 56.4396L51.9483 19.3697L51.9499 7.61584L51.9459 4.10561C51.9466 3.47883 51.9905 2.81525 51.9348 2.19237C51.9063 1.87462 51.7559 1.53481 51.5277 1.30577C51.243 1.01991 50.815 0.867991 50.4121 0.863264C50.2862 0.861873 50.1581 0.873923 50.0327 0.883563ZM46.9092 57.3936L42.2223 57.398C41.6548 58.5953 41.1749 59.8444 40.6545 61.0628L53.9935 61.0505L60.246 61.05C59.7664 59.821 59.2988 58.5198 58.6479 57.3689C54.7363 57.3753 50.8201 57.3422 46.9092 57.3936Z" fill="#6DA2FF"/>
<rect x="48.334" y="6.66699" width="4.16667" height="2.5" fill="#6DA2FF"/>
<rect x="48.334" y="16.667" width="4.16667" height="2.5" fill="#6DA2FF"/>
<rect x="48.334" y="26.667" width="4.16667" height="2.5" fill="#6DA2FF"/>
<rect x="48.334" y="36.667" width="4.16667" height="2.5" fill="#6DA2FF"/>
<rect x="48.334" y="46.667" width="4.16667" height="2.5" fill="#6DA2FF"/>
</svg>
