<svg width="100" height="62" viewBox="0 0 100 62" fill="none" xmlns="http://www.w3.org/2000/svg">
<path d="M8.33398 49.5996H42.5006" stroke="#6DA2FF" stroke-width="0.833333" stroke-linecap="round"/>
<path d="M8.33398 40.5068H24.1673" stroke="#6DA2FF" stroke-width="0.833333" stroke-linecap="round"/>
<path d="M8.33398 31.4131H12.5007" stroke="#6DA2FF" stroke-width="0.833333" stroke-linecap="round"/>
<path d="M15.834 31.4131H29.1673" stroke="#6DA2FF" stroke-width="0.833333" stroke-linecap="round"/>
<path d="M8.33398 22.3203H24.1673" stroke="#6DA2FF" stroke-width="0.833333" stroke-linecap="round"/>
<path d="M9.16602 12.4004H43.3327" stroke="#6DA2FF" stroke-width="0.833333" stroke-linecap="round"/>
<path d="M35.8525 30.9956L30.7258 22.1567C30.4036 21.6011 30.8045 20.9053 31.4467 20.9053H34.6319C34.8776 20.9053 35.1108 21.0137 35.2691 21.2015L39.789 26.5638C39.9474 26.7517 40.1805 26.8601 40.4262 26.8601H55.8583C56.4876 26.8601 56.8899 26.1893 56.5934 25.6342L49.2981 11.973C49.0016 11.4178 49.4038 10.7471 50.0331 10.7471H54.7167C54.9582 10.7471 55.1878 10.8518 55.3461 11.0342L68.8303 26.5729C68.9885 26.7553 69.2182 26.8601 69.4597 26.8601H85.6763C85.8419 26.8601 86.0036 26.9093 86.141 27.0016L91.298 30.4655C91.5284 30.6203 91.6667 30.8797 91.6667 31.1573V31.6702C91.6667 31.9478 91.5284 32.2072 91.298 32.3619L86.141 35.8258C86.0036 35.9181 85.8419 35.9674 85.6763 35.9674H69.4597C69.2182 35.9674 68.9885 36.0722 68.8303 36.2546L55.3461 51.7932C55.1878 51.9756 54.9582 52.0804 54.7167 52.0804H50.0606C49.425 52.0804 49.0233 51.3974 49.3323 50.842L56.9177 37.2058C57.2267 36.6504 56.825 35.9674 56.1894 35.9674H40.4262C40.1805 35.9674 39.9474 36.0758 39.789 36.2637L35.2691 41.626C35.1108 41.8138 34.8776 41.9222 34.6319 41.9222H31.4467C30.8045 41.9222 30.4036 41.2263 30.7258 40.6708L35.8525 31.8318C36.0024 31.5733 36.0024 31.2542 35.8525 30.9956Z" stroke="#6DA2FF" stroke-width="1.25"/>
</svg>
