<svg width="343" height="671" viewBox="0 0 343 671" fill="none" xmlns="http://www.w3.org/2000/svg">
<path d="M342.302 669.75C275.969 547.75 583.301 282.25 83.8012 420.75C9.75113 441.282 -39.3151 514.829 44.8011 556.25C110.8 588.75 266.3 551.25 296.801 364.75C315.461 250.653 342.302 41.75 342.302 0.75" stroke="#121E4C" stroke-width="1.5" stroke-linecap="round" stroke-dasharray="14 14"/>
<rect x="123.301" y="519.75" width="65" height="65" rx="32.5" fill="#6DA2FF"/>
<path d="M149.438 532.667C149.048 532.667 148.674 532.821 148.399 533.097C148.123 533.372 147.969 533.746 147.969 534.135V538.542H143.562C143.173 538.542 142.799 538.696 142.524 538.972C142.248 539.247 142.094 539.621 142.094 540.01V549.34L139.235 550.387C139.044 550.457 138.869 550.566 138.723 550.706C138.576 550.847 138.46 551.017 138.382 551.204C138.304 551.392 138.266 551.594 138.27 551.797C138.274 552 138.321 552.201 138.406 552.385L142.979 562.214C143.411 562.071 143.868 562.015 144.322 562.051C144.775 562.086 145.218 562.212 145.623 562.42C146.027 562.629 146.387 562.916 146.679 563.265C146.972 563.614 147.192 564.017 147.326 564.452C147.326 564.46 147.334 564.478 147.344 564.505C147.525 564.989 147.772 565.445 148.078 565.86C148.619 566.579 149.183 566.937 149.927 566.937C150.671 566.937 151.235 566.581 151.774 565.86C152.091 565.43 152.344 564.957 152.526 564.454C152.742 563.756 153.176 563.145 153.764 562.71C154.352 562.276 155.063 562.041 155.795 562.04C156.526 562.039 157.238 562.272 157.827 562.704C158.417 563.137 158.852 563.747 159.071 564.444L159.09 564.499C159.273 564.984 159.522 565.442 159.83 565.858C160.373 566.583 160.939 566.937 161.677 566.937C162.415 566.937 162.979 566.581 163.524 565.86C163.842 565.428 164.097 564.953 164.28 564.448C164.419 564.002 164.648 563.588 164.954 563.234C165.259 562.879 165.633 562.591 166.054 562.386C166.475 562.182 166.933 562.066 167.401 562.045C167.868 562.025 168.335 562.1 168.772 562.267L173.605 552.414C173.697 552.229 173.747 552.026 173.755 551.819C173.762 551.612 173.726 551.406 173.648 551.214C173.57 551.023 173.453 550.849 173.303 550.706C173.154 550.563 172.976 550.453 172.781 550.384L169.51 549.216V540.01C169.51 539.621 169.356 539.247 169.08 538.972C168.805 538.696 168.431 538.542 168.042 538.542H163.635V534.135C163.635 533.746 163.481 533.372 163.205 533.097C162.93 532.821 162.556 532.667 162.167 532.667H149.438ZM160.698 538.542H150.906V535.604H160.698V538.542ZM166.573 541.479V548.169L157.962 545.096C156.561 544.597 155.03 544.604 153.634 545.116L145.031 548.263V541.479H166.573ZM168.976 565.104L168.97 565.085C168.886 564.777 168.705 564.505 168.454 564.31C168.203 564.114 167.894 564.006 167.576 564.001C167.257 563.996 166.946 564.094 166.688 564.282C166.431 564.469 166.241 564.735 166.148 565.04V565.044L166.14 565.061L166.101 565.175C165.853 565.839 165.512 566.466 165.089 567.035C164.331 568.044 163.25 568.896 161.677 568.896C160.105 568.896 159.022 568.044 158.264 567.035C157.816 566.433 157.461 565.767 157.21 565.059L157.204 565.042C157.112 564.741 156.926 564.477 156.673 564.29C156.42 564.102 156.113 564.001 155.798 564.002C155.484 564.002 155.177 564.103 154.924 564.291C154.671 564.478 154.486 564.742 154.394 565.044L154.386 565.065C154.32 565.258 154.245 565.447 154.161 565.633C153.987 566.021 153.716 566.534 153.338 567.035C152.585 568.044 151.505 568.896 149.927 568.896C148.349 568.896 147.268 568.044 146.512 567.035C146.066 566.434 145.713 565.769 145.464 565.063L145.458 565.042C145.366 564.737 145.176 564.471 144.919 564.283C144.662 564.095 144.351 563.996 144.032 564C143.714 564.004 143.406 564.112 143.154 564.307C142.902 564.502 142.72 564.774 142.636 565.081L142.63 565.098L142.595 565.204C142.365 565.855 142.031 566.464 141.608 567.01C140.856 567.969 139.658 568.896 137.688 568.896C137.298 568.896 136.924 569.05 136.649 569.326C136.373 569.601 136.219 569.975 136.219 570.364C136.219 570.754 136.373 571.128 136.649 571.403C136.924 571.678 137.298 571.833 137.688 571.833C140.77 571.833 142.754 570.312 143.921 568.823L144.052 568.649L144.162 568.798C145.243 570.237 147.099 571.833 149.927 571.833C152.755 571.833 154.611 570.237 155.69 568.798L155.802 568.645L155.916 568.8C156.997 570.237 158.853 571.833 161.677 571.833C164.501 571.833 166.358 570.237 167.438 568.798L167.546 568.651C167.587 568.71 167.63 568.764 167.675 568.821C168.841 570.312 170.828 571.833 173.917 571.833C174.306 571.833 174.68 571.678 174.955 571.403C175.231 571.128 175.385 570.754 175.385 570.364C175.385 569.975 175.231 569.601 174.955 569.326C174.68 569.05 174.306 568.896 173.917 568.896C171.935 568.896 170.738 567.969 169.99 567.012C169.546 566.438 169.203 565.793 168.976 565.104Z" fill="white"/>
</svg>
