<svg width="124" height="296" viewBox="0 0 124 296" fill="none" xmlns="http://www.w3.org/2000/svg">
<g clip-path="url(#clip0_127_7822)">
<path d="M0 1C30.1558 20.5 90.9644 108.5 92.9527 156.5C94.941 204.5 33.801 276 0 297" stroke="#121E4C" stroke-width="1.5" stroke-linecap="round" stroke-dasharray="14 14"/>
<rect x="59" y="124" width="65" height="65" rx="32.5" fill="#0C47B8"/>
<path d="M77.623 164.306C77.623 165.833 78.2996 167.203 79.3577 168.157V171.245C79.3577 172.199 80.1383 172.979 81.0923 172.979H82.827C83.7811 172.979 84.5616 172.199 84.5616 171.245V169.51H98.4388V171.245C98.4388 172.199 99.2194 172.979 100.173 172.979H101.908C102.862 172.979 103.643 172.199 103.643 171.245V168.157C104.701 167.203 105.377 165.833 105.377 164.306V146.96C105.377 140.888 99.1674 140.021 91.5002 140.021C83.8331 140.021 77.623 140.888 77.623 146.96V164.306ZM83.6943 166.041C82.2546 166.041 81.0923 164.879 81.0923 163.439C81.0923 161.999 82.2546 160.837 83.6943 160.837C85.1341 160.837 86.2963 161.999 86.2963 163.439C86.2963 164.879 85.1341 166.041 83.6943 166.041ZM99.3062 166.041C97.8664 166.041 96.7042 164.879 96.7042 163.439C96.7042 161.999 97.8664 160.837 99.3062 160.837C100.746 160.837 101.908 161.999 101.908 163.439C101.908 164.879 100.746 166.041 99.3062 166.041ZM101.908 155.633H81.0923V146.96H101.908V155.633Z" fill="white"/>
</g>
<defs>
<clipPath id="clip0_127_7822">
<rect width="124" height="296" fill="white"/>
</clipPath>
</defs>
</svg>
