<svg width="100" height="62" viewBox="0 0 100 62" fill="none" xmlns="http://www.w3.org/2000/svg">
<rect y="7.5" width="72.5" height="5" rx="1.66667" fill="#6DA2FF"/>
<rect y="14.1665" width="72.5" height="5" rx="1.66667" fill="#6DA2FF"/>
<rect y="20.8335" width="72.5" height="4.16667" rx="1.66667" fill="#6DA2FF"/>
<rect y="26.6665" width="72.5" height="4.16667" rx="1.66667" fill="#6DA2FF"/>
<rect y="32.5" width="72.5" height="3.33333" rx="1.66667" fill="#6DA2FF"/>
<rect y="37.5" width="72.5" height="2.5" rx="1.25" fill="#6DA2FF"/>
<rect y="41.6665" width="72.5" height="2.5" rx="1.25" fill="#6DA2FF"/>
<rect y="45.8335" width="72.5" height="1.66667" rx="0.833333" fill="#6DA2FF"/>
<path d="M72.5 16.9157L72.6362 16.0454C73.4952 15.4429 88.0669 15.8294 90.2707 15.8202L100 32.5232L99.9908 46.6732L93.7973 46.6397C93.2547 49.0436 92.3708 51.0672 90.2341 52.4731C88.4693 53.6172 86.3174 54.0037 84.263 53.5442C82.1568 53.0695 80.331 51.7732 79.191 49.9413C78.0998 48.1581 77.845 46.0371 78.3711 44.0257C78.9167 41.9382 80.1847 40.2585 82.0532 39.1752C83.8241 38.1497 85.9821 37.815 87.9664 38.3597C90.0512 38.9318 91.7733 40.4015 92.8005 42.2851C93.3065 43.2163 93.6052 44.2144 93.7759 45.2582L98.5949 45.249L98.5796 33.1714L82.4433 33.1744L82.4403 20.6982L91.4045 20.5795L89.4904 17.1865C83.9125 17.2109 78.2248 17.4482 72.656 17.1652L72.5 16.9157Z" fill="#6DA2FF"/>
<path d="M22.2534 39.6584C25.0842 37.4964 29.0243 37.481 31.8699 39.6247C32.4675 40.0748 32.9978 40.6077 33.4447 41.2049C34.3038 42.3563 34.8294 43.719 34.9646 45.1461C35.0004 45.5228 35.0087 45.9055 34.9887 46.2853C34.7735 50.4194 31.3578 53.6808 27.1834 53.7329C23.0087 53.785 19.5106 50.6124 19.1895 46.4843C19.1497 45.9729 19.1605 45.4615 19.2213 44.9532C19.3788 43.6394 19.8683 42.3869 20.644 41.312C21.0959 40.6843 21.6379 40.1269 22.2534 39.6584Z" fill="#6DA2FF"/>
</svg>
