<svg width="100" height="62" viewBox="0 0 100 62" fill="none" xmlns="http://www.w3.org/2000/svg">
<path d="M38.3983 28.4748H33.6808V41.9025H48.3051V28.4748H43.3517M38.3983 28.4748V31.3365H43.3517V28.4748M38.3983 28.4748H43.3517M57.2684 28.4748H52.315V41.9025H67.1752V28.4748H62.4577M57.2684 28.4748V31.3365H62.4577V28.4748M57.2684 28.4748H62.4577M20 60.8333V19.0094L50.1921 2.5L80.8333 19.0094V60.8333H71.8927V24.0723H28.7274C28.7274 36.326 28.7274 60.8333 28.7274 60.8333H20Z" stroke="#6DA2FF" stroke-width="1.25"/>
<path d="M37.996 45.833H33.334V59.1663H47.7862V45.833H42.8911M37.996 45.833V49.0588H42.8911V45.833M37.996 45.833H42.8911M56.644 45.833H51.7489V59.1663H66.6673V45.833H61.5391M56.644 45.833V49.0588H61.5391V45.833M56.644 45.833H61.5391" stroke="#6DA2FF" stroke-width="1.25"/>
</svg>
