<svg width="100" height="62" viewBox="0 0 100 62" fill="none" xmlns="http://www.w3.org/2000/svg">
<g clip-path="url(#clip0_127_7330)">
<path d="M51.146 55.3733C49.3097 55.5235 47.682 54.3507 47.5141 52.7563C47.3462 51.162 48.7019 49.7524 50.5392 49.6111C52.3692 49.4703 53.9853 50.6414 54.1526 52.2295C54.3198 53.8175 52.9751 55.2237 51.146 55.3733ZM50.7213 50.904C50.1267 51.0166 49.6015 51.1854 49.2626 51.6577C49.0191 51.997 48.9564 52.4084 49.0627 52.7954C49.1835 53.2251 49.4981 53.5948 49.9357 53.8215C50.2514 53.9886 50.6008 54.064 50.963 54.108C51.4756 54.0509 51.8154 53.9442 52.1506 53.5847C52.5116 53.1973 52.6829 52.6302 52.598 52.1382C52.5309 51.7524 52.2809 51.4087 51.9088 51.1899C51.5619 50.9835 51.1368 50.9028 50.7213 50.904Z" fill="#6DA2FF"/>
<mask id="mask0_127_7330" style="mask-type:alpha" maskUnits="userSpaceOnUse" x="45" y="21" width="10" height="26">
<path d="M47.3768 46.2792C47.2122 44.9273 47.2167 43.5287 47.1303 42.1685L46.6615 35.5952C46.3603 30.9108 45.9245 26.2073 45.834 21.5162C48.6117 21.4821 51.3898 21.4843 54.1673 21.5228C54.143 24.91 53.8631 28.3307 53.6696 31.7135L52.9479 45.0256C52.9413 45.4437 52.908 45.8581 52.8741 46.2749C51.0441 46.31 49.2076 46.2812 47.3768 46.2792ZM47.9591 23.4423L48.7197 35.7815C48.8158 37.6158 48.9281 39.4493 49.0571 41.2818C49.1263 42.3113 49.1542 43.3508 49.3084 44.3731C49.8411 44.3839 50.374 44.4003 50.9067 44.3842C50.9445 44.1317 51.002 43.8691 51.0088 43.6146L51.4522 34.5462C51.6575 30.8707 51.9227 27.1858 52.019 23.5065C50.6662 23.486 49.3116 23.4789 47.9591 23.4423Z" fill="#885151"/>
</mask>
<g mask="url(#mask0_127_7330)">
<path d="M43.334 22.8446C43.334 22.654 43.4969 22.4995 43.698 22.4995H58.8033C59.0044 22.4995 59.1673 22.654 59.1673 22.8446V23.6554C59.1673 23.846 59.0044 24.0005 58.8033 24.0005H43.698C43.4969 24.0005 43.334 23.846 43.334 23.6554V22.8446Z" fill="#6DA2FF"/>
<path d="M43.334 25.096C43.334 24.9055 43.4969 24.751 43.698 24.751H58.8033C59.0044 24.751 59.1673 24.9055 59.1673 25.096V25.8319C59.1673 26.0224 59.0044 26.1769 58.8033 26.1769H43.698C43.4969 26.1769 43.334 26.0224 43.334 25.8319V25.096Z" fill="#6DA2FF"/>
<path d="M43.334 27.2725C43.334 27.0819 43.4969 26.9274 43.698 26.9274H58.8033C59.0044 26.9274 59.1673 27.0819 59.1673 27.2725V27.9332C59.1673 28.1238 59.0044 28.2783 58.8033 28.2783H43.698C43.4969 28.2783 43.334 28.1238 43.334 27.9332V27.2725Z" fill="#6DA2FF"/>
<path d="M43.334 29.3738C43.334 29.1833 43.4969 29.0288 43.698 29.0288H58.8033C59.0044 29.0288 59.1673 29.1833 59.1673 29.3738V29.9596C59.1673 30.1501 59.0044 30.3046 58.8033 30.3046H43.698C43.4969 30.3046 43.334 30.1501 43.334 29.9596V29.3738Z" fill="#6DA2FF"/>
<path d="M43.334 31.4002C43.334 31.2096 43.4969 31.0551 43.698 31.0551H58.8033C59.0044 31.0551 59.1673 31.2096 59.1673 31.4002V31.9108C59.1673 32.1014 59.0044 32.2559 58.8033 32.2559H43.698C43.4969 32.2559 43.334 32.1014 43.334 31.9108V31.4002Z" fill="#6DA2FF"/>
<path d="M43.334 33.3514C43.334 33.1609 43.4969 33.0064 43.698 33.0064H58.8033C59.0044 33.0064 59.1673 33.1609 59.1673 33.3514V33.7871C59.1673 33.9776 59.0044 34.1321 58.8033 34.1321H43.698C43.4969 34.1321 43.334 33.9776 43.334 33.7871V33.3514Z" fill="#6DA2FF"/>
<path d="M43.334 35.2277C43.334 35.0371 43.4969 34.8826 43.698 34.8826H58.8033C59.0044 34.8826 59.1673 35.0371 59.1673 35.2277V35.5727C59.1673 35.7633 59.0044 35.9178 58.8033 35.9178H43.698C43.4969 35.9178 43.334 35.7633 43.334 35.5727V35.2277Z" fill="#6DA2FF"/>
<path d="M43.334 37.0133C43.334 36.8227 43.4969 36.6683 43.698 36.6683H58.8033C59.0044 36.6683 59.1673 36.8227 59.1673 37.0133V37.2721C59.1673 37.4627 59.0044 37.6172 58.8033 37.6172H43.698C43.4969 37.6172 43.334 37.4627 43.334 37.2721V37.0133Z" fill="#6DA2FF"/>
<path d="M43.334 38.7127C43.334 38.5221 43.4969 38.3676 43.698 38.3676H58.8033C59.0044 38.3676 59.1673 38.5221 59.1673 38.7127V38.8852C59.1673 39.0758 59.0044 39.2303 58.8033 39.2303H43.698C43.4969 39.2303 43.334 39.0758 43.334 38.8852V38.7127Z" fill="#6DA2FF"/>
<path d="M43.334 40.3258C43.334 40.1353 43.4969 39.9808 43.698 39.9808H58.8033C59.0044 39.9808 59.1673 40.1353 59.1673 40.3258V40.4121C59.1673 40.6027 59.0044 40.7571 58.8033 40.7571H43.698C43.4969 40.7571 43.334 40.6027 43.334 40.4121V40.3258Z" fill="#6DA2FF"/>
<path d="M43.334 41.8096C43.334 41.6428 43.4766 41.5076 43.6525 41.5076H58.8488C59.0247 41.5076 59.1673 41.6428 59.1673 41.8096C59.1673 41.9763 59.0247 42.1115 58.8488 42.1115H43.6525C43.4766 42.1115 43.334 41.9763 43.334 41.8096Z" fill="#6DA2FF"/>
<path d="M43.334 43.1208C43.334 42.9778 43.4562 42.862 43.607 42.862H58.8943C59.0451 42.862 59.1673 42.9778 59.1673 43.1208C59.1673 43.2637 59.0451 43.3795 58.8943 43.3795H43.607C43.4562 43.3795 43.334 43.2637 43.334 43.1208Z" fill="#6DA2FF"/>
<path d="M43.334 44.3457C43.334 44.2266 43.4358 44.13 43.5615 44.13H58.9398C59.0655 44.13 59.1673 44.2266 59.1673 44.3457C59.1673 44.4648 59.0655 44.5614 58.9398 44.5614H43.5615C43.4358 44.5614 43.334 44.4648 43.334 44.3457Z" fill="#6DA2FF"/>
<path d="M43.334 45.4844C43.334 45.3891 43.4155 45.3118 43.516 45.3118H58.9853C59.0858 45.3118 59.1673 45.3891 59.1673 45.4844C59.1673 45.5797 59.0858 45.6569 58.9853 45.6569H43.516C43.4155 45.6569 43.334 45.5797 43.334 45.4844Z" fill="#6DA2FF"/>
<path d="M43.334 46.5368C43.334 46.4653 43.3951 46.4074 43.4705 46.4074H59.0308C59.1062 46.4074 59.1673 46.4653 59.1673 46.5368C59.1673 46.6082 59.1062 46.6662 59.0308 46.6662H43.4705C43.3951 46.6662 43.334 46.6082 43.334 46.5368Z" fill="#6DA2FF"/>
</g>
<path d="M83.9199 61.25H16.0811L50 2.49902L83.9199 61.25Z" stroke="#6DA2FF" stroke-width="2.5"/>
</g>
<defs>
<clipPath id="clip0_127_7330">
<rect width="100" height="62" fill="white"/>
</clipPath>
</defs>
</svg>
